<?xml version="1.0" encoding="utf-8"?>
<!-- Generator: Adobe Illustrator 21.0.0, SVG Export Plug-In . SVG Version: 6.00 Build 0)  -->
<svg version="1.1" id="contacts-graphic" xmlns="http://www.w3.org/2000/svg" xmlns:xlink="http://www.w3.org/1999/xlink" x="0px"
	 y="0px" viewBox="0 0 640 407" style="enable-background:new 0 0 640 407;" xml:space="preserve">
<style type="text/css">
	.st0{fill:#8C6239;}
	.st1{fill:#D52744;}
	.st2{fill:url(#SVGID_1_);}
	.st3{fill:#E4E8EB;}
	.st4{fill:#C6C9CC;}
	.st5{fill:#A67C52;}
	.st6{fill:url(#SVGID_2_);}
	.st7{fill:#6F5BE0;}
	.st8{fill:url(#SVGID_3_);}
	.st9{fill:url(#SVGID_4_);}
	.st10{fill:url(#SVGID_5_);}
	.st11{fill:url(#SVGID_6_);}
	.st12{fill:url(#SVGID_7_);}
	.st13{fill:url(#SVGID_8_);}
	.st14{fill:url(#SVGID_9_);}
	.st15{fill:url(#SVGID_10_);}
	.st16{fill:#F2F2F2;}
	.st17{fill:#FFFFFF;}
	.st18{fill:url(#SVGID_11_);}
	.st19{fill:url(#SVGID_12_);}
	.st20{fill:url(#SVGID_13_);}
	.st21{fill:url(#SVGID_14_);}
	.st22{fill:url(#SVGID_15_);}
	.st23{fill:url(#SVGID_16_);}
	.st24{fill:url(#SVGID_17_);}
	.st25{fill:url(#SVGID_18_);}
	.st26{fill:url(#SVGID_19_);}
	.st27{fill:url(#SVGID_20_);}
	.st28{opacity:0.42;fill:#A8A191;}
	.st29{opacity:0.42;fill:#E0C13F;}
	.st30{fill:#FF8345;}
	.st31{fill:#FF671C;}
	.st32{fill:#EAD8CF;}
	.st33{fill:#DA9B5B;}
	.st34{fill:#666666;}
	.st35{fill:#292C47;}
	.st36{fill:#E2D2CA;}
	.st37{fill:#323657;}
	.st38{fill:#1A1A1A;}
	.st39{fill:#333333;}
</style>
<g>
	<g>
		<path class="st0" d="M552.2,132.1c0,0-5.2-2.5-7.5-3.8c-2.3-1.3-8.2-3.1-8.6-3.5c-0.5-0.4-17.4-1.5-18.4-2.4c-1-0.9-2,2.1,2.4,3
			c4.4,1,10.5,3.3,10.8,5c0.3,1.7-4.5,2.1-5,3.5c-0.5,1.4,0.1,1.1,0.8,1.4c0.7,0.3,5.8-2.5,8-1.7c2.2,0.8,5.6-0.3,7.3,0.3
			c1.7,0.6,10,3.4,10,3.4L552.2,132.1z"/>
	</g>
	<ellipse class="st1" cx="331" cy="386" rx="295" ry="13.2"/>
	<g>
		<linearGradient id="SVGID_1_" gradientUnits="userSpaceOnUse" x1="14" y1="109.0775" x2="53.2326" y2="109.0775">
			<stop  offset="0" style="stop-color:#071786"/>
			<stop  offset="0.1509" style="stop-color:#05136B"/>
			<stop  offset="0.3236" style="stop-color:#041055"/>
			<stop  offset="0.5107" style="stop-color:#030E45"/>
			<stop  offset="0.7204" style="stop-color:#020C3B"/>
			<stop  offset="1" style="stop-color:#020C38"/>
		</linearGradient>
		<path class="st2" d="M36.8,77.8c-3.6,2.7-5.4,7.5-4.6,11.9c0.7,3.9,3.3,7.9,1.7,11.6c-1.6,3.8-6.4,4.6-10.3,5.8
			c-3,0.9-6,2.3-7.9,4.8c-1.9,2.5-2.4,6.2-0.6,8.8c2.2,3,7.3,4,7.8,7.7c0.4,3.1-3,5.7-2.9,8.9c0.1,2.2,2,4.1,4.1,4.8
			c2.1,0.7,4.4,0.6,6.6,0.4c3.1-0.2,6.2-0.5,9-1.7c2.8-1.2,5.3-3.6,5.8-6.6c0.4-2.6-0.6-5.1-1.2-7.6c-0.6-2.5-0.7-5.5,1.1-7.4
			c1.2-1.2,2.9-1.6,4.1-2.7c2.7-2.4,2.1-6.6,0.9-10c-1.2-3.3-3-6.9-1.9-10.3c0.7-2.3,2.6-4.1,3.7-6.3C56.9,80,45.2,71.4,36.8,77.8z"
			/>
		<g>
			<g>
				<path class="st3" d="M61.5,198.3c-4.5,1.3-8.3,5-9.6,9.5c-0.6,2.1-0.6,4.2-0.5,6.3c0.6,11.6,7.2,19.3,13.2,28.2
					c6.7,9.9,15.3,18.4,24.3,26.2c3.6,3.2,7.7,6,11.3,9.2c4.8,4.2,10.3,11.3,17.2,4.4c4.7-4.7,2.4-8.9-0.1-13.5
					c-2.9-5.4-21.2-36.3-25.6-42.4c-4.1-5.7-8.4-11.4-12.6-17C74.7,203.3,70.9,195.7,61.5,198.3z"/>
			</g>
			<g>
				<path class="st3" d="M51.4,190.6c-4.3-1.9-9.7-1.3-13.4,1.6c-1.7,1.4-3.1,3.2-4.3,5c-6.7,10.2-6.3,21.1-7.1,32.6
					c-0.9,12.8,0.7,25.7,2.9,38.3c0.9,5.1,2.3,10.2,3.2,15.3c1.1,6.8,1.2,16.4,10.8,15.2c6.7-0.8,7.4-5.9,8.3-11.4
					c1.1-6.5,5.7-44.8,6-52.9c0.3-7.6,0.4-15.2,0.6-22.8C58.7,203.5,60.4,194.6,51.4,190.6z"/>
				<g>
					<g>
						<g>
							<polygon class="st4" points="34.3,364.2 34.5,376.4 36.5,376.4 36.8,366.7 							"/>
						</g>
					</g>
					<g>
						<g>
							<path class="st4" d="M51.4,373.6c0,0,8.4,11.5,7.2,13.4c-1.2,1.9-10.3,2.1-15.9,0c-5.6-2.1-5.7-15.8-8.2-21.7
								c-1.1-2.5,1.2-9.8,4.4-10.3c3.2-0.5,6.9,1.1,6.9,1.1S42.5,364.4,51.4,373.6z"/>
						</g>
					</g>
					<path class="st5" d="M46,357.6c0.3-3.8,0.7-10,1.2-16.9H34.9c1.4,7.6,3,15.8,3.3,17.7c-0.1,1.2-0.2,2.7-0.1,4.5
						c0.3,4.8,2.5,12.7,5.4,15.4c2.9,2.7,10.1,1.8,10.3,0.7c0.3-1.1-5.4-9.8-6.5-13.7C46.8,362.8,46.2,359.5,46,357.6z"/>
					<path class="st3" d="M33.4,331.1c0.7,5.6,2.6,15.2,3.8,21.6h9.1c1.2-16.9,3.8-51.9,3.9-55c0.2-4.2,0.8-7.9-2.8-10.9
						c-1-0.8-2.1-1.4-3.4-1.6c-0.1,0-0.3-0.1-0.4-0.1c-5.8-0.9-9.8,3.5-10.6,8.8c-1,6.7-1.9,13-1.5,19.7
						C31.9,319.4,32.6,325.3,33.4,331.1z"/>
				</g>
			</g>
			
				<linearGradient id="SVGID_2_" gradientUnits="userSpaceOnUse" x1="-1221.3224" y1="90.3147" x2="-1183.4186" y2="90.3147" gradientTransform="matrix(1 0 0 1 1261.9984 0)">
				<stop  offset="0" style="stop-color:#071786"/>
				<stop  offset="0.1509" style="stop-color:#05136B"/>
				<stop  offset="0.3236" style="stop-color:#041055"/>
				<stop  offset="0.5107" style="stop-color:#030E45"/>
				<stop  offset="0.7204" style="stop-color:#020C3B"/>
				<stop  offset="1" style="stop-color:#020C38"/>
			</linearGradient>
			<path class="st6" d="M44.1,77.5c-2.9,4.3-4.2,10-3,15.6c1.3,5.8,4.8,11.4,9.5,15c5.2,4,11.1,3.8,16.7,0.6c3.7-2.1,6.6-5.4,8.8-9
				c7.8-13.2-4.2-32.1-19.4-30.1C51.5,70.3,47,73.2,44.1,77.5z"/>
			<path class="st7" d="M123.8,126.8c-2.8,2.9-7.1,4.5-7.5,4.6c-6.4,2.1-13.2,3.2-20,3.6c-5.5,0.3-11.1,0.3-16.6-0.2
				c-4.8-0.4-21.1-1-16.4-9.7c1.2-2.2,3.5-3.3,5.8-3.9c10.3-2.8,46.4-2.6,46.4-2.6L123.8,126.8z"/>
			<path class="st5" d="M81.5,150.1c-0.5-5.2-11-28.7-11-28.7s-2.9-0.5-4.8-1.2c-0.9-4-0.3-7.6-0.3-7.6l-10.9-10.9
				c1.3,11.9-3.5,16.2-3.5,16.2c-1.7,0.1-7.3,0.4-9.8,0.7c-1.6,0.2-3,0.7-4.1,1.3c-2.5,1.3-3.8,4.2-3.1,7c1.8,7.3,5.7,23.8,6,33.3
				c0.4,12.5-7,40.2-7,40.2l45.2-0.1C75.1,187.7,73,170,73,170C71.8,160.4,82.4,159.5,81.5,150.1z"/>
			
				<linearGradient id="SVGID_3_" gradientUnits="userSpaceOnUse" x1="-1200.1921" y1="210.9998" x2="-1200.1921" y2="118.8641" gradientTransform="matrix(1 0 0 1 1261.9984 0)">
				<stop  offset="0" style="stop-color:#F9FBFC"/>
				<stop  offset="0.2923" style="stop-color:#F1F6FD"/>
				<stop  offset="0.733" style="stop-color:#DDE6FE"/>
				<stop  offset="0.9973" style="stop-color:#CDDBFF"/>
			</linearGradient>
			<path class="st8" d="M82.5,150.1c-0.5-5.2-12-27.8-12-27.8s-1.5-1.5-5.4-1.1c-0.1,0-1.4,11.3-1.4,11.3l-10.7-12.7
				c-3.9-0.6-5.2-0.8-5.2-0.8c-1.7,0.1-4,0.3-6.5,0.6c0,0-0.1,0-0.1,0v83.1c3.7,1.4,7.6,2.3,11.7,2.7c9.8,0.8,18.8-1,27.3-5.2
				c-3.1-13-7-30.2-7-30.2C71.8,160.4,83.4,159.5,82.5,150.1z"/>
			<path class="st7" d="M53.3,214c4.8-3.3,3.9-15.2,3.9-21.1c0-23-0.1-46.1-0.1-69.1c-2.5-2.6-6.1-6.2-9.4-5.7
				c-1.7,0.1-4,0.3-6.5,0.6c-1.6,0.2-3,0.7-4.1,1.3c-2.5,1.3-3.8,4.2-3.1,7c1.8,7.3,5.7,23.8,6,33.3c0.4,12.5-12.1,47.4-12.1,47.4
				C33,209.5,48.4,217.4,53.3,214z"/>
			<path class="st7" d="M82.5,150.1c-0.5-5.2-12-28.7-12-28.7s-1.5-1.3-5.2-0.7c0.1,4.5,0.4,12.5,0.5,16.9
				c0.2,9.9,0.3,19.8,0.5,29.7c0.2,10,1.1,21.7,1.3,31.8c0.1,3.7-0.5,10.5,3.7,12.6c1.4,0.7,12.1-3.1,11.9-3.6
				c-3.1-12.5-6.9-37.2-6.9-37.2C75,161.3,83.4,159.5,82.5,150.1z"/>
			<linearGradient id="SVGID_4_" gradientUnits="userSpaceOnUse" x1="62.6158" y1="140.7521" x2="49.221" y2="159.7833">
				<stop  offset="0" style="stop-color:#E7E6FF"/>
				<stop  offset="0.3393" style="stop-color:#C9D2F8"/>
				<stop  offset="0.7637" style="stop-color:#AABDF1"/>
				<stop  offset="1" style="stop-color:#9EB5EE"/>
			</linearGradient>
			<path class="st9" d="M82.2,154.5c-3,1-5.4,2-7.4,3c-0.5,0.2-0.8,0.5-1.2,0.7c0,0,0-0.1,0-0.1s-28.1-22.6-37.9-26.9
				c-0.2-0.1-0.5-0.2-0.7-0.3c1.4,5.8,3.1,13.9,4.2,20.9c2.9,2.6,6,5,9.2,7.2c5.5,3.9,11.5,7.2,17.9,9.6c0.4,0.1,7.4,1.3,7.4,1.3
				c0,0,0,0,0,0c0.7,0.3,1.6,0.3,2.7,0.3C75.5,162.9,80.7,160.3,82.2,154.5z"/>
			<g>
				<g>
					<g>
						<path class="st5" d="M75,84.9c1.1,6.4,3.3,22.3-3.5,28.3c0,0-14.6,1.8-21.5-10.5C43,90.4,72.6,71.2,75,84.9z"/>
					</g>
				</g>
				
					<linearGradient id="SVGID_5_" gradientUnits="userSpaceOnUse" x1="-1217.6163" y1="83.9067" x2="-1194.988" y2="83.9067" gradientTransform="matrix(1 0 0 1 1261.9984 0)">
					<stop  offset="0" style="stop-color:#030F4B"/>
					<stop  offset="0.1501" style="stop-color:#030E45"/>
					<stop  offset="0.5141" style="stop-color:#020C3B"/>
					<stop  offset="1" style="stop-color:#020C38"/>
				</linearGradient>
				<path class="st10" d="M66.8,77.5c0.6,2.3,0,4.9-2.2,7.1c-3,3-6.1,6-9.5,8.5l-2.2,4.3c0,0-3.7-8.3-3.7-8.3
					c-0.6-0.2-4.6-2.2-4.7-2.7c-0.3-4.2,0.3-9,3.1-12.4c2.6-3,6.8-4.2,10.6-3.7C62.4,71,65.9,74,66.8,77.5z"/>
			</g>
			<path class="st5" d="M52.9,94c0,0-2.4-5.2-5.2-2.9c-2.7,2.4-0.8,12.2,5.2,14.2V94z"/>
			<path class="st5" d="M135.5,69.6l8.8-12c0,0,1.6,1.7,1.3,3.3c-0.4,1.6,0.4,2.8,0.2,4.2c-0.1,1.5,1.2,4.9,0.4,7.3
				c-0.8,2.3-4.4,3.7-5.4,5.9c-0.9,2.2-2.6,6.9-2.6,6.9l-8-3.6l2.6-6.3c0,0-2-7.5,1.6-12.1L135.5,69.6z"/>
			<path class="st7" d="M122.1,128.2c0,0-10.4-3.1-8.5-11.2c2-8.1,10.4-19.6,19.2-42.4l7.6,4.1C140.5,78.7,130.5,123.6,122.1,128.2z
				"/>
			
				<linearGradient id="SVGID_6_" gradientUnits="userSpaceOnUse" x1="-1909.5438" y1="1410.9103" x2="-1901.8717" y2="1410.9103" gradientTransform="matrix(0.9542 -0.2992 0.2992 0.9542 1537.2372 -1853.4835)">
				<stop  offset="0" style="stop-color:#FFD1C1"/>
				<stop  offset="0.3445" style="stop-color:#FFBAA5"/>
				<stop  offset="0.7588" style="stop-color:#FFA389"/>
				<stop  offset="1" style="stop-color:#FF9A7F"/>
			</linearGradient>
			<path class="st11" d="M139.7,55.4l4.5,5l0.2,9.8l-8-9c0,0,0.6-1.8,1.9-0.6l-1.7-2.3C136.6,58.3,135.3,55.5,139.7,55.4z"/>
			<g>
				<g>
					<g>
						<linearGradient id="SVGID_7_" gradientUnits="userSpaceOnUse" x1="65.5874" y1="132.4047" x2="65.5874" y2="117.1974">
							<stop  offset="0" style="stop-color:#E7E6FF"/>
							<stop  offset="0.3393" style="stop-color:#C9D2F8"/>
							<stop  offset="0.7637" style="stop-color:#AABDF1"/>
							<stop  offset="1" style="stop-color:#9EB5EE"/>
						</linearGradient>
						<path class="st12" d="M63.6,132.4l4-3.8l-2.3-11.4C65.3,117.2,63.4,132.2,63.6,132.4z"/>
						<linearGradient id="SVGID_8_" gradientUnits="userSpaceOnUse" x1="69.8227" y1="130.1667" x2="69.8227" y2="117.1974">
							<stop  offset="0" style="stop-color:#F9FBFC"/>
							<stop  offset="0.9973" style="stop-color:#CDDBFF"/>
						</linearGradient>
						<polygon class="st13" points="65.3,117.2 67.6,128.6 74.4,130.2 						"/>
					</g>
					<linearGradient id="SVGID_9_" gradientUnits="userSpaceOnUse" x1="55.1894" y1="133.0602" x2="55.1894" y2="116.4043">
						<stop  offset="0" style="stop-color:#F9FBFC"/>
						<stop  offset="0.3069" style="stop-color:#F0F5FD"/>
						<stop  offset="0.8031" style="stop-color:#D8E3FE"/>
						<stop  offset="0.9973" style="stop-color:#CDDBFF"/>
					</linearGradient>
					<polygon class="st14" points="48.9,117.7 55.7,133.1 61.5,127.4 50.5,116.4 					"/>
				</g>
				<linearGradient id="SVGID_10_" gradientUnits="userSpaceOnUse" x1="61.465" y1="132.4047" x2="61.465" y2="127.4141">
					<stop  offset="0" style="stop-color:#E7E6FF"/>
					<stop  offset="0.3393" style="stop-color:#C9D2F8"/>
					<stop  offset="0.7637" style="stop-color:#AABDF1"/>
					<stop  offset="1" style="stop-color:#9EB5EE"/>
				</linearGradient>
				<polygon class="st15" points="61.5,127.4 63.6,132.4 59.4,129.5 				"/>
			</g>
		</g>
	</g>
	<g>
		<path class="st16" d="M365.6,86L301,39.8l0,0l-19.9-14.3L96.3,157.9v54.9v84.3v54.3c0,18.9,15.3,34.2,34.2,34.2h301.2
			c18.9,0,34.2-15.3,34.2-34.2v-54.3v-84.3v-54.9L365.6,86z"/>
		<g>
			<g>
				<rect x="133.8" y="14.8" class="st17" width="294.5" height="340.8"/>
				<g>
					<linearGradient id="SVGID_11_" gradientUnits="userSpaceOnUse" x1="212.0609" y1="25.3974" x2="206.9936" y2="429.071">
						<stop  offset="0" style="stop-color:#E3EBFD"/>
						<stop  offset="0.9973" style="stop-color:#8F8BFF"/>
					</linearGradient>
					<rect x="159.6" y="36.3" class="st18" width="103.6" height="88"/>
					<g>
						<linearGradient id="SVGID_12_" gradientUnits="userSpaceOnUse" x1="340.578" y1="27.0109" x2="335.5107" y2="430.681">
							<stop  offset="0" style="stop-color:#E3EBFD"/>
							<stop  offset="0.9973" style="stop-color:#8F8BFF"/>
						</linearGradient>
						<rect x="277.5" y="60.7" class="st19" width="125.1" height="14"/>
						<g>
							<linearGradient id="SVGID_13_" gradientUnits="userSpaceOnUse" x1="340.8847" y1="27.0142" x2="335.8173" y2="430.6885">
								<stop  offset="0" style="stop-color:#E3EBFD"/>
								<stop  offset="0.9973" style="stop-color:#8F8BFF"/>
							</linearGradient>
							<rect x="277.5" y="85.2" class="st20" width="125.1" height="14"/>
							<g>
								<linearGradient id="SVGID_14_" gradientUnits="userSpaceOnUse" x1="341.1914" y1="27.0178" x2="336.124" y2="430.693">
									<stop  offset="0" style="stop-color:#E3EBFD"/>
									<stop  offset="0.9973" style="stop-color:#8F8BFF"/>
								</linearGradient>
								<rect x="277.5" y="109.6" class="st21" width="125.1" height="14"/>
								<linearGradient id="SVGID_15_" gradientUnits="userSpaceOnUse" x1="282.5347" y1="26.2797" x2="277.4672" y2="429.9602">
									<stop  offset="0" style="stop-color:#E3EBFD"/>
									<stop  offset="0.9973" style="stop-color:#8F8BFF"/>
								</linearGradient>
								<rect x="159.6" y="134" class="st22" width="243.1" height="14"/>
								<linearGradient id="SVGID_16_" gradientUnits="userSpaceOnUse" x1="282.8413" y1="26.2846" x2="277.7739" y2="429.9622">
									<stop  offset="0" style="stop-color:#E3EBFD"/>
									<stop  offset="0.9973" style="stop-color:#8F8BFF"/>
								</linearGradient>
								<rect x="159.6" y="158.5" class="st23" width="243.1" height="14"/>
								<linearGradient id="SVGID_17_" gradientUnits="userSpaceOnUse" x1="283.148" y1="26.2882" x2="278.0807" y2="429.964">
									<stop  offset="0" style="stop-color:#E3EBFD"/>
									<stop  offset="0.9973" style="stop-color:#8F8BFF"/>
								</linearGradient>
								<rect x="159.6" y="182.9" class="st24" width="243.1" height="14"/>
								<linearGradient id="SVGID_18_" gradientUnits="userSpaceOnUse" x1="283.4547" y1="26.2898" x2="278.3873" y2="429.9698">
									<stop  offset="0" style="stop-color:#E3EBFD"/>
									<stop  offset="0.9973" style="stop-color:#8F8BFF"/>
								</linearGradient>
								<rect x="159.6" y="207.3" class="st25" width="243.1" height="14"/>
								<linearGradient id="SVGID_19_" gradientUnits="userSpaceOnUse" x1="283.7614" y1="26.2959" x2="278.694" y2="429.9729">
									<stop  offset="0" style="stop-color:#E3EBFD"/>
									<stop  offset="0.9973" style="stop-color:#8F8BFF"/>
								</linearGradient>
								<rect x="159.6" y="231.8" class="st26" width="243.1" height="14"/>
							</g>
						</g>
					</g>
				</g>
			</g>
			<linearGradient id="SVGID_20_" gradientUnits="userSpaceOnUse" x1="281.0941" y1="157.8885" x2="281.0941" y2="385.5817">
				<stop  offset="0" style="stop-color:#FFFF3D"/>
				<stop  offset="0.1434" style="stop-color:#FFE73C"/>
				<stop  offset="0.3265" style="stop-color:#FFCF3B"/>
				<stop  offset="0.5214" style="stop-color:#FFBE3A"/>
				<stop  offset="0.7346" style="stop-color:#FFB439"/>
				<stop  offset="1" style="stop-color:#FFB139"/>
			</linearGradient>
			<path class="st27" d="M415.4,189C415.4,189,415.4,189,415.4,189l-78.6,48.5L298.4,261c-10.6,6.6-24.1,6.6-34.7,0L96.3,157.9v59.3
				v135.3v0.9h0.1c0.5,17.9,15,32.2,33,32.2h303.4c18,0,32.5-14.4,33-32.2h0.1v-0.9V217.2v-59.3L415.4,189z"/>
			<polygon class="st28" points="428.4,131 428.4,179.8 443.6,170.9 443.6,141.9 			"/>
		</g>
		<g>
			<path class="st29" d="M242.1,247.7L106.3,376.1c0.3,0.3,0.7,0.5,1,0.8L258.8,258L242.1,247.7z"/>
			<path class="st29" d="M321.1,247.1l-17.8,11L454.9,377c0.3-0.3,0.7-0.6,1.1-0.9L321.1,247.1z"/>
		</g>
	</g>
	<path class="st7" d="M80.3,159.8c0,0-7-1.1-7.4-1.3c-6.3-2.4-12.3-5.7-17.9-9.6c-4.5-3.2-8.8-6.7-12.9-10.6
		c-3.5-3.4-14.3-11.5-5.6-18.2c1.9-1.5,3.7,0,5.9,0.9c9.8,4.2,37.9,26.9,37.9,26.9S80.7,158.9,80.3,159.8z"/>
	<g>
		<path class="st5" d="M128.1,133.7l1-0.9c0,0,0.1-0.1,0.1-0.1l9-6.4c0.4-0.3,0.9-0.4,1.3-0.2l14.4,4.7c0.3,0.1,0.5,0.2,0.7,0.4l0,0
			c0.7,0.8,0.4,2-0.6,2.4l-1.5,0.6c-0.3,0.1-0.6,0.1-0.9,0.1l-4.9-1.4c-0.4-0.1-0.7,0-1,0.2c-1.7,1-7.9,4.4-13.4,6
			c-0.7,0.2-1.4-0.1-1.8-0.8L128.1,133.7z"/>
		<path class="st7" d="M80.2,159.8c0,0-6.9-8.2,1.3-12.4c8.2-4.2,25.9-8.4,51.5-17.6l2.1,9.4C135.2,139.2,90.2,163.4,80.2,159.8z"/>
	</g>
	<g>
		<path id="XMLID_4_" class="st30" d="M367.2,263.2c-7.2,11.2-5.2,26.1,4.8,34.9l12.6,11.2c6.6,5.9,7.7,15.7,2.6,22.9l-32.8,46.1
			c-6.3,8.9-19.2,9.7-26.7,1.7c-8-8.5-15.2-20.3-21.6-41c-12.2-38.9,17.4-74.3,65.7-142.1c48.3-67.8,72.1-107.3,112.8-108.5
			c22.1-0.6,35.6,2.4,46.3,7.4c9.7,4.5,12.7,16.8,6.5,25.5l-32.8,46.1c-5.1,7.2-14.8,9.4-22.5,5.1l-14.7-8.2
			c-11.7-6.5-26.3-3.6-34.6,6.9L367.2,263.2z"/>
		<path class="st31" d="M422.2,165c-12.2,17.3-32.1,45.5-32.1,45.5s-19.9,28.2-32.1,45.5c-12.2,17.3-2,33.1,25.6,52.5l-11.6-10.3
			c-10-8.9-12-23.7-4.8-34.9l65.5-92c8.3-10.5,22.9-13.4,34.6-6.9l12.8,7.2l0.1-0.1C452.7,152,434.4,147.7,422.2,165z"/>
	</g>
	<g>
		<g>
			<g>
				<path class="st0" d="M570.2,91.7c0,2.6-0.6,17.6-0.6,17.6c1.5,1.7,9,2.4,12.2-0.3c2.5-2.1,2.8-4,2.8-4l-0.9-22L570.2,91.7z"/>
				<path class="st0" d="M582.6,66.4l0.8,7.8l1.3,11.9l0.4,3.4c-7.6,13-20.2,14.3-24.3,10c-4.1-4.3-5.9-29-5.9-29L582.6,66.4z"/>
			</g>
			<path d="M585.2,62.4c-5-4.1-16.4-3.8-24.2-0.6c-1.1,0.5-3.4,2.1-4.3,2.3c-3.1,4-2.7,5.4-1.9,9.6c7.5-0.4,9.4,3.6,11.7,4.9
				c3,1.7,12.6,22,12.6,22l4.2-1.5c3-0.9,6.6-11.1,8.3-23.4C592.7,68.3,585.2,62.4,585.2,62.4z"/>
			<path class="st0" d="M573.3,78.6c3.1,2.5,2.9,9.6-3,13.6l-2.4-11.7C568.2,78.6,571.3,77,573.3,78.6z"/>
		</g>
		<g>
			<path class="st32" d="M544.8,135.8l-2.7-1c0,0,3.3-7.8,4.8-7.7c1.7,0.2,3.8,0.8,3.8,0.8L544.8,135.8z"/>
		</g>
		<g>
			<path class="st33" d="M544.2,137.1c0.3-0.3,5.7-10.5,5.7-10.5l11.4,1.6l-6.2,12.2L544.2,137.1z"/>
		</g>
		<g>
			<path class="st0" d="M514.5,152.3c0,0-4.4-3.9-6.5-5.6c-2.1-1.6-6.1-6.5-6.7-6.8c-0.6-0.3-8.2-15.8-9.4-16.5
				c-1.2-0.6,1.2-2.7,3.8,1c2.6,3.8,7.2,8.6,9,8.3c1.7-0.4,0.2-5.1,1.4-6.1c1.1-1,1.1-0.3,1.6,0.2c0.6,0.5-0.1,6.4,1.5,8.2
				c1.6,1.8,1.9,5.4,3.1,6.8c1.2,1.4,7.1,8.1,7.1,8.1L514.5,152.3z"/>
		</g>
		<g>
			<path class="st34" d="M608.7,362.6c0,0,0.9,6.6,1.1,7.6c0.1,1,10.5-0.6,10.5-0.6l0.8-7.8C621.1,361.8,610,361.7,608.7,362.6z"/>
		</g>
		<g>
			<path d="M609.6,369.3c0,0-3.3,4-6.5,5.7c-3.2,1.7-8.2,2.4-10.1,4.2c-1.4,1.3-5,6.8,8.3,6.7c13.2-0.1,19.6,0.8,21-1.3
				c1.4-2.1-2.1-15.7-2.1-15.7S617.2,370,609.6,369.3z"/>
		</g>
		<g>
			<path class="st34" d="M534.1,362.6c0,0,0.9,6.6,1.1,7.6c0.1,1,10.5-0.6,10.5-0.6l0.8-7.8C546.5,361.8,535.4,361.7,534.1,362.6z"
				/>
		</g>
		<g>
			<path d="M535.1,369.3c0,0-3.3,4-6.5,5.7c-3.2,1.7-14.9,3.1-16.8,4.9c-1.4,1.3-3.6,6.5,15,6c13.2-0.3,19.6,0.8,21-1.3
				c1.4-2.1-2.1-15.7-2.1-15.7S542.8,370.1,535.1,369.3z"/>
		</g>
		<g>
			<path class="st35" d="M600,193.9c0,0,9.8,15.5,9,29.6c-0.7,14,3.5,29.4,5,44c1.6,16.3,8.3,55.1,8.6,63.8c0.2,8.7-1,36.7-1,36.7
				l-13.4,0.3c0,0-11.3-67.7-14.2-74.6c-2.9-6.9-17.4-56.1-17.9-61.6C575.7,226.6,600,193.9,600,193.9z"/>
		</g>
		<g>
			<path class="st35" d="M548.6,196.1c0,0-7.4,38.5-8.3,47.1c-1,8.6-1.6,41.6-2.1,46.9c-0.5,5.4-3.2,70.3-5.8,78.2h17.1
				c0,0,13.2-47.2,13.2-69.5c0-22.3,10.2-48.5,16.7-63.3c6.6-14.7,21.6-15.1,25.6-42.4C605,193.2,554,187.4,548.6,196.1z"/>
		</g>
		<g>
			<path class="st36" d="M565.7,106.4c0,0,0.1-3.3,1.6-3.7c1.5-0.3,16.7-1.8,18.5-1v3.9C585.8,105.6,582.2,107.8,565.7,106.4z"/>
		</g>
		<g>
			<path class="st37" d="M505.5,145.8C505.5,145.8,505.5,145.8,505.5,145.8C505.4,145.9,505.4,145.9,505.5,145.8z"/>
		</g>
		<g>
			<path class="st37" d="M611.1,230.9c0,0-8,2.4-21.8,3.9c-13.7,1.5-48-0.5-48.2-2.2c-0.2-1.6,7.4-60.4,6.9-63.4
				c-0.4-3-0.7-13.8-0.7-13.8c-0.2,3-3.2,15-6.8,21.6c-1.3,2.4-5.7,9.8-7.8,8.1c-10.3-8.2-26.2-39.1-27.2-39.4
				c0.8-0.4,7.5-3.4,8.5-3.8c0.8-0.3,8.2,7.6,12.7,12.4c2,2.2,3.4,3.7,3.4,3.7c1.3-2.9,6-21.3,7.5-27.6c3.3-14.3,2.8-14.9,2.8-14.9
				c10-3,25.3-9.2,25.3-9.2l20.1-0.8c0,0,18.5,4.1,25.7,7.3c0.7,0.3,0.7,16.5,2.6,20.7l-6,12.7c0,0-3.5,25.2-4.2,36.4
				C603.6,187.9,611.1,230.9,611.1,230.9z"/>
		</g>
		<g>
			<path class="st37" d="M615,154.6c-0.5,1.7-2.9,3.1-4.5,3.8c-1,0.4-2.1,0.5-3.2,0.3l-0.8-0.1l0,0l-13.8-2.6c0,0-3-34.7,18.8-43
				C612.1,113.2,619.8,139.1,615,154.6z"/>
		</g>
		<g>
			<path class="st38" d="M610.5,158.4L610.5,158.4c-1,0.4-2.1,0.5-3.2,0.3l-0.8-0.1l0,0l1.4-17.7L610.5,158.4z"/>
		</g>
		<g>
			<path class="st39" d="M530.2,158.2l-1.7,7.1c0,0-1.8-7.2-1.7-10.9C528.7,156.7,530.2,158.2,530.2,158.2z"/>
		</g>
	</g>
</g>
</svg>
