<?xml version="1.0" encoding="utf-8"?>
<!-- Generator: Adobe Illustrator 21.0.0, SVG Export Plug-In . SVG Version: 6.00 Build 0)  -->
<svg version="1.1" id="decision-icon" xmlns="http://www.w3.org/2000/svg" xmlns:xlink="http://www.w3.org/1999/xlink" x="0px"
	 y="0px" viewBox="0 0 340 200" style="enable-background:new 0 0 340 200;" xml:space="preserve">
<style type="text/css">
	.icon-white{fill:#FFFFFF;}
	.icon-orange{fill:#F9A918;}
</style>
<g>
	<g>
		<path class="icon-white" d="M239.4,198c-0.7-3.8-1.8-7.5-2.8-11.2c-1.2-4.2-3.4-7.6-6.7-10.1c-0.6-0.5-1.2-1-1.8-1.4
			c-9.8-6.7-20.2-12-31-16.2c-0.2-0.1-0.5,0-0.7,0.2c-1.2,1.3-2.4,2.6-3.7,3.8c-9,8.7-19.3,11.5-30.9,8.4c-4.4-1.2-8.2-3.7-11.8-6.8
			c-1.9-1.6-3.7-3.6-5.6-5.3c-0.2-0.2-0.7-0.4-0.9-0.2c-6.3,2.7-12.6,5.3-18.7,8.6c-5.1,2.8-10.2,5.8-14.8,9.7
			c-2.6,2.2-4.6,4.9-5.6,8.5c-0.8,3-1.7,6-2.4,9c-0.3,1-0.5,2-0.7,3H239.4z"/>
		<path class="icon-white" d="M202.3,125.3c-0.6,12.1-5.3,22.6-15.4,30.9c-2.8,2.3-5.9,4.1-9.5,5.2c-2.9,0.9-5.9,0.8-8.9,0.8
			c-4.9-0.1-9-2.1-12.8-4.7c-7.2-5-11.8-11.7-14.7-19.4c-1.9-5.1-2.8-10.3-2.3-15.7c0.5-6,3-11.3,7.1-16.1c5.4-6.3,12.5-9.9,21.2-11
			c5.1-0.7,10.1,0.2,14.8,2c10.4,3.9,16.7,11,19.5,20.7C202,120.3,202.2,122.8,202.3,125.3z"/>
	</g>
	<path class="icon-orange" d="M172.9,31.9c6.1,5.7,12.2,11.4,18.2,17.1c3.7,3.5,4.1,7.3,1.3,9.9c-2.8,2.6-6.7,2.1-10.4-1.4
		c-1.4-1.3-2.5-2.9-3.7-4.3c-0.4,0.2-0.7,0.5-1.1,0.7c0,5.5,0,11,0,17c12.8,1.9,24.4,6.7,33.8,15.6c9.5,8.9,14.8,19.8,16.8,32.4
		c9.6,0,19.1,0,29.5,0c-2.3-2.3-4.3-4-6-6c-2.7-2.9-2.8-6,0.2-8.7c2.9-2.6,6.1-2.3,8.8,0.2c5.8,5.3,11.5,10.8,17.2,16.3
		c2.9,2.8,2.9,6,0.1,8.8c-5.6,5.6-11.3,11-17.2,16.3c-2.9,2.7-6.4,2.8-9.3,0c-2.9-2.8-2.4-6,0.4-8.7c1.7-1.6,3.6-3,5.4-4.5
		c-0.2-0.4-0.5-0.8-0.7-1.2c-10.3,0-20.7,0-31,0c-8,0-9.3-1.1-10-8.8c-2.1-21.8-19.4-38.4-41.5-39.9c-21.7-1.5-41.5,11.9-47,32.1
		c-0.8,3-1.2,6.1-1.4,9.2c-0.4,5.2-2.4,7.3-8,7.4c-10.2,0.1-20.5,0-30.7,0c-0.8,0-1.5,0.1-2.2,0.2c-0.3,0.4-0.6,0.8-0.9,1.3
		c2,1.5,4.2,2.9,6,4.6c2.7,2.6,2.9,5.7,0.1,8.3c-2.7,2.6-6.2,2.7-8.9,0.2c-6.1-5.5-12.1-11.1-17.9-16.9c-2.4-2.4-2.4-5.6,0.1-8.1
		c5.7-5.6,11.6-11.2,17.5-16.6c2.7-2.5,5.9-2.8,8.8-0.2c3.1,2.7,2.9,5.9,0.1,8.7c-1.8,1.8-4,3.2-6.1,4.8c0.3,0.4,0.5,0.7,0.8,1.1
		c9.4,0,18.9,0,28.5,0c5.4-26.9,22.3-43,51-48.1c0-5.5,0-11.1,0-17.7c-2.2,2-3.8,3.6-5.5,5.1c-3.2,2.8-7.2,3.1-9.7,0.7
		c-2.6-2.4-2.4-6.2,0.7-9.2c6.2-6,12.6-11.9,18.9-17.8C169.6,31.9,171.3,31.9,172.9,31.9z"/>
	<path class="icon-white" d="M33.8,119.2c1.1-1.3,1.9-2.4,2.9-3.4c2.2-2.2,5.3-2.2,7.3-0.2c2,2,1.8,5-0.4,7.2c-0.9,0.9-1.8,1.8-2.9,2.9
		c1.1,1,2.1,2,3.1,3c1.5,1.4,2,3.1,1.3,5.1c-0.6,1.9-2.1,3-4.1,3.3c-1.6,0.2-3-0.3-4.2-1.4c-1-1-1.9-2.2-3.3-3.6
		c-1.3,1.5-2.2,2.7-3.3,3.8c-1.6,1.5-3.5,1.7-5.5,0.8c-1.9-0.9-3-2.5-2.7-4.6c0.1-1.2,0.8-2.3,1.5-3.3c0.9-1.1,2-2.1,3.1-3.2
		c-1-1-2-2-3-3c-2.2-2.2-2.3-5.1-0.3-7.1c2-2.1,5-2.1,7.2,0.1C31.7,116.7,32.5,117.8,33.8,119.2z"/>
	<path class="icon-white" d="M306.4,119.2c1.1-1.3,1.9-2.4,2.9-3.4c2.2-2.2,5.3-2.2,7.3-0.2c2,2,1.8,5-0.4,7.2c-0.9,0.9-1.8,1.8-2.9,2.9
		c1.1,1,2.1,2,3.1,3c1.5,1.4,2,3.1,1.3,5.1c-0.6,1.9-2.1,3-4.1,3.3c-1.6,0.2-3-0.3-4.2-1.4c-1-1-1.9-2.2-3.3-3.6
		c-1.3,1.5-2.2,2.7-3.3,3.8c-1.6,1.5-3.5,1.7-5.5,0.8c-1.9-0.9-3-2.5-2.7-4.6c0.1-1.2,0.8-2.3,1.5-3.3c0.9-1.1,2-2.1,3.1-3.2
		c-1-1-2-2-3-3c-2.2-2.2-2.3-5.1-0.3-7.1c2-2.1,5-2.1,7.2,0.1C304.2,116.7,305.1,117.8,306.4,119.2z"/>
	<path class="icon-white" d="M171.2,12.6c0.5-0.5,0.8-0.8,1.2-1.1c2.6-2.6,5.3-5.2,7.9-7.8c2.3-2.2,5.5-2.3,7.7-0.1c2,2.1,1.9,5.2-0.4,7.4
		c-4,4-8.1,8-12.2,11.9c-2.5,2.5-5.5,2.4-8,0c-1.8-1.7-3.6-3.5-5.4-5.2c-2.2-2.2-2.3-5.3-0.3-7.3c2-2.1,5.3-2.1,7.5,0
		C169.9,11,170.5,11.8,171.2,12.6z"/>
</g>
</svg>
