<?xml version="1.0" encoding="utf-8"?>
<!-- Generator: Adobe Illustrator 21.0.0, SVG Export Plug-In . SVG Version: 6.00 Build 0)  -->
<svg version="1.1" id="Layer_1" xmlns="http://www.w3.org/2000/svg" xmlns:xlink="http://www.w3.org/1999/xlink" x="0px" y="0px"
	 viewBox="0 0 640 480" style="enable-background:new 0 0 640 480;" xml:space="preserve">
<style type="text/css">
	.st0{fill:#E6E6E6;}
	.st1{opacity:0.2;}
	.st2{fill:#18BDF7;}
	.st3{opacity:0.2;fill:#18BDF7;}
	.st4{opacity:0.26;fill:#4A63FE;}
	.st5{fill:#A2ABFF;}
	.st6{opacity:0.5;fill:#6976EC;}
	.st7{fill:#6976EC;}
	.st8{fill:url(#SVGID_1_);}
	.st9{fill:url(#SVGID_2_);}
	.st10{fill:#E0E0E0;}
	.st11{fill:#B8B8B8;}
	.st12{fill:#D9D9D9;}
	.st13{fill:url(#SVGID_3_);}
	.st14{fill:url(#SVGID_4_);}
	.st15{fill:#FFFFFF;}
	.st16{fill:#1A598C;}
	.st17{fill:#2273B5;}
	.st18{fill:#3D96E0;}
	.st19{fill:#4B59C7;}
	.st20{fill:#6F5BE0;}
	.st21{fill:#B487FE;}
	.st22{fill:#3788CC;}
	.st23{fill:#C4C4C4;}
	.st24{fill:#B8D6FF;}
	.st25{fill:url(#SVGID_5_);}
	.st26{fill:url(#SVGID_6_);}
	.st27{fill:url(#SVGID_7_);}
	.st28{opacity:0.73;fill:#FFFFFF;}
	.st29{fill:#42CDE8;}
	.st30{fill:url(#SVGID_8_);}
	.st31{fill:#7BD6E8;}
	.st32{fill:url(#SVGID_9_);}
	.st33{fill:url(#SVGID_10_);}
	.st34{fill:url(#SVGID_11_);}
	.st35{fill:url(#SVGID_12_);}
	.st36{fill:#2D3038;}
	.st37{fill:#A67C52;}
	.st38{fill:#E4E8EB;}
	.st39{fill:#BDC0C2;}
	.st40{fill:#C6C9CC;}
	.st41{fill:#0F324F;}
	.st42{fill:#E54242;}
	.st43{fill:#1D3B54;}
	.st44{opacity:0.1;fill:#B8B8B8;}
	.st45{opacity:0.3;fill:#869AC2;}
	.st46{fill:#3F444F;}
	.st47{fill:#292C47;}
	.st48{fill:#E2D2CA;}
	.st49{fill:#8C6239;}
	.st50{fill:#EAD8CF;}
	.st51{fill:#DA9B5B;}
	.st52{fill:#424773;}
	.st53{fill:#323657;}
	.st54{fill:#252840;}
</style>
<g>
	<ellipse class="st0" cx="123.3" cy="463.3" rx="35.3" ry="5"/>
	<ellipse class="st0" cx="564.8" cy="461.8" rx="41" ry="5.8"/>
	<g>
		<g>
			<g class="st1">
				<path class="st2" d="M102.6,168.2c-5.3-6.1-13.2-10-21.9-10c-8.1,0-15.5,3.3-20.7,8.7c-5.2,5.2-8.4,12.4-8.4,20.4
					c0,16.1,13,29.1,29.1,29.1c4.7,0,9.1-1.1,13-3.1c7.8-3.9,13.6-11.2,15.5-20c0.4-2,0.6-4,0.6-6.1
					C109.8,180,107.1,173.3,102.6,168.2z M104.3,192.3c-1.6,7.3-6.4,13.3-12.8,16.6c-3.2,1.6-6.9,2.5-10.8,2.5
					c-13.3,0-24.2-10.8-24.2-24.2c0-6.6,2.6-12.6,6.9-16.9c4.4-4.5,10.5-7.2,17.2-7.2c7.3,0,13.8,3.2,18.2,8.3c3.7,4.3,6,9.8,6,15.9
					C104.8,189,104.6,190.7,104.3,192.3z"/>
			</g>
			<path class="st3" d="M109.1,193.4c-1.9,8.7-7.7,16.1-15.5,20l-2.2-4.4c6.5-3.2,11.3-9.3,12.8-16.6L109.1,193.4z"/>
			<path class="st4" d="M102.6,168.2l-3.7,3.2c-4.4-5.1-10.9-8.3-18.2-8.3c-6.7,0-12.8,2.8-17.2,7.2l-3.5-3.5
				c5.3-5.4,12.6-8.7,20.7-8.7C89.4,158.2,97.3,162.1,102.6,168.2z"/>
		</g>
		<path class="st5" d="M50.8,260.6l2.3-1.7c-1.1-1.8-2.7-3.3-4.5-4.5l-1.7,2.3c-1-0.6-2.1-1.1-3.3-1.4l0.4-2.9
			c-1-0.2-2.1-0.4-3.2-0.4c-1.1,0-2.1,0.1-3.2,0.4l0.4,2.9c-1.2,0.3-2.3,0.7-3.3,1.4l-1.7-2.3c-1.8,1.1-3.3,2.7-4.5,4.5l2.3,1.7
			c-0.6,1-1.1,2.1-1.4,3.3l-2.9-0.4c-0.2,1-0.4,2.1-0.4,3.2s0.1,2.1,0.4,3.2l2.9-0.4c0.3,1.2,0.7,2.3,1.4,3.3l-2.3,1.7
			c1.1,1.8,2.7,3.3,4.5,4.5l1.7-2.3c1,0.6,2.1,1.1,3.3,1.4l-0.4,2.9c1,0.2,2.1,0.4,3.2,0.4c1.1,0,2.1-0.1,3.2-0.4l-0.4-2.9
			c1.2-0.3,2.3-0.7,3.3-1.4l1.7,2.3c1.8-1.1,3.3-2.7,4.5-4.5l-2.3-1.7c0.6-1,1.1-2.1,1.4-3.3l2.9,0.4c0.2-1,0.4-2.1,0.4-3.2
			s-0.1-2.1-0.4-3.2l-2.9,0.4C51.9,262.7,51.4,261.6,50.8,260.6z M41,274.3c-4.2,0-7.7-3.4-7.7-7.7c0-4.2,3.4-7.7,7.7-7.7
			c4.2,0,7.7,3.4,7.7,7.7C48.6,270.9,45.2,274.3,41,274.3z"/>
		<path class="st6" d="M584.1,69.8l4.4-3.3c-2.2-3.4-5-6.3-8.4-8.4l-3.3,4.4c-1.9-1.1-4-2-6.2-2.6l0.8-5.5c-1.9-0.4-3.9-0.7-6-0.7
			c-2.1,0-4,0.2-6,0.7l0.8,5.5c-2.2,0.5-4.3,1.4-6.2,2.6l-3.3-4.4c-3.4,2.2-6.3,5-8.4,8.4l4.4,3.3c-1.1,1.9-2,4-2.6,6.2l-5.5-0.8
			c-0.4,1.9-0.7,3.9-0.7,6c0,2.1,0.2,4,0.7,6l5.5-0.8c0.5,2.2,1.4,4.3,2.6,6.2l-4.4,3.3c2.2,3.4,5,6.3,8.4,8.4l3.3-4.4
			c1.9,1.1,4,2,6.2,2.6l-0.8,5.5c1.9,0.4,3.9,0.7,6,0.7c2.1,0,4-0.2,6-0.7l-0.8-5.5c2.2-0.5,4.3-1.4,6.2-2.6l3.3,4.4
			c3.4-2.2,6.3-5,8.4-8.4l-4.4-3.3c1.1-1.9,2-4,2.6-6.2l5.5,0.8c0.4-1.9,0.7-3.9,0.7-6c0-2.1-0.2-4-0.7-6l-5.5,0.8
			C586.1,73.7,585.2,71.7,584.1,69.8z M565.4,95.6c-8,0-14.5-6.5-14.5-14.5c0-8,6.5-14.5,14.5-14.5c8,0,14.5,6.5,14.5,14.5
			C579.9,89.1,573.5,95.6,565.4,95.6z"/>
		<g>
			<path class="st7" d="M603.3,212.6c-7.6,0-13.7-6.1-13.7-13.7c0-7.6,6.1-13.7,13.7-13.7s13.7,6.1,13.7,13.7
				C617,206.4,610.9,212.6,603.3,212.6z M603.3,189.1c-5.4,0-9.7,4.4-9.7,9.7c0,5.4,4.4,9.7,9.7,9.7c5.4,0,9.7-4.4,9.7-9.7
				C613,193.5,608.7,189.1,603.3,189.1z"/>
		</g>
	</g>
	<g>
		<linearGradient id="SVGID_1_" gradientUnits="userSpaceOnUse" x1="312.8597" y1="417.6567" x2="312.8597" y2="322.5231">
			<stop  offset="0" style="stop-color:#D5E4FF"/>
			<stop  offset="1" style="stop-color:#EDFFFE"/>
		</linearGradient>
		<path class="st8" d="M415.1,382.5H210.6c-4.5,0-8.1-3.6-8.1-8.1v-22.9c0-4.5,3.6-8.1,8.1-8.1h204.5c4.5,0,8.1,3.6,8.1,8.1v22.9
			C423.2,378.8,419.6,382.5,415.1,382.5z"/>
		<linearGradient id="SVGID_2_" gradientUnits="userSpaceOnUse" x1="220.9218" y1="12.4526" x2="482.4423" y2="482.4819">
			<stop  offset="0" style="stop-color:#D5E4FF"/>
			<stop  offset="1" style="stop-color:#EDFFFE"/>
		</linearGradient>
		<path class="st9" d="M496.4,362.9H140c-9.2,0-16.6-7.4-16.6-16.6V28.3c0-9.2,7.4-16.6,16.6-16.6h356.4c9.2,0,16.6,7.4,16.6,16.6
			v318.1C513,355.5,505.6,362.9,496.4,362.9z"/>
		<g>
			<g>
				<rect x="146.3" y="186.3" class="st10" width="0.9" height="90.4"/>
			</g>
			<g>
				<rect x="207.6" y="186.3" class="st10" width="0.9" height="90.4"/>
			</g>
			<g>
				<rect x="268.9" y="186.3" class="st10" width="0.9" height="90.4"/>
			</g>
			<g>
				<rect x="330.1" y="186.3" class="st10" width="0.9" height="90.4"/>
			</g>
			<g>
				<rect x="391.4" y="186.3" class="st10" width="0.9" height="90.4"/>
			</g>
			<rect x="146.8" y="282.1" class="st11" width="9.7" height="3.1"/>
			<rect x="146.8" y="175.2" class="st12" width="14.7" height="2.4"/>
			<rect x="146.8" y="179.5" class="st12" width="20.8" height="2.4"/>
			<rect x="207.4" y="175.2" class="st12" width="17.2" height="2.4"/>
			<rect x="207.4" y="179.5" class="st12" width="11" height="2.4"/>
			<rect x="269.7" y="175.2" class="st12" width="10.7" height="2.4"/>
			<rect x="269.7" y="179.5" class="st12" width="12.4" height="2.4"/>
			<rect x="331" y="175.2" class="st12" width="15.6" height="2.4"/>
			<rect x="331" y="179.5" class="st12" width="12.4" height="2.4"/>
			<rect x="391.8" y="175.2" class="st12" width="9.3" height="2.4"/>
			<rect x="391.8" y="179.5" class="st12" width="7.4" height="2.4"/>
			<rect x="208" y="282.1" class="st11" width="9.7" height="3.1"/>
			<rect x="269.7" y="282.1" class="st11" width="9.7" height="3.1"/>
			<rect x="331" y="282.1" class="st11" width="9.7" height="3.1"/>
			<rect x="392.3" y="282.1" class="st11" width="9.7" height="3.1"/>
			<g>
				<linearGradient id="SVGID_3_" gradientUnits="userSpaceOnUse" x1="146.7596" y1="229.8189" x2="391.8473" y2="229.8189">
					<stop  offset="0" style="stop-color:#FFC05C"/>
					<stop  offset="1" style="stop-color:#FF3857"/>
				</linearGradient>
				<path class="st13" d="M370.6,249.9c-19.1,0-35.7-8.3-53-16.9c-21.4-10.6-43.5-21.6-72.9-18.6c-18.8,1.9-30.6,9.6-41,16.3
					c-9.4,6.1-18.3,11.5-30.4,12c-19.5,0.7-26.3-7.6-26.4-8.1v-5.3l0,0l0,0c0,0.1,4.3,9.4,26.4,9.3c10.9-0.1,18.9-5.3,28.2-11.3
					c10.8-7,23.1-15,42.9-17c30.6-3.1,53.3,8.1,75.2,19c22.9,11.4,44.8,22.1,72.4,12.8v4.4C384,249.2,377.7,249.9,370.6,249.9z"/>
			</g>
			<g>
				<linearGradient id="SVGID_4_" gradientUnits="userSpaceOnUse" x1="146.7596" y1="223.187" x2="391.9767" y2="223.187">
					<stop  offset="0" style="stop-color:#40D5E6"/>
					<stop  offset="1" style="stop-color:#5577FF"/>
				</linearGradient>
				<path class="st14" d="M255.9,248.8c-14.1,0-25.3-9.5-36.2-18.8c-8.3-7-16.9-14.2-26.9-17.8c-30.4-10.8-45.9,9-46,9.1v-6
					c0.2-0.2,2.9-3.8,10.9-7.2c7.3-3.1,19.5-5.6,36.4,0.3c10.7,3.7,19.6,11.3,28.2,18.5c17.4,14.8,32.5,27.5,58.6,7.5
					c19.8-15.1,38.5-29.6,56.8-34.8c18-5.2,36.7-1.4,54.2,16.1l-0.1,5.5c-37.2-37.4-68.9-13.7-108.4,16.5
					C273,245.8,264,248.8,255.9,248.8z"/>
			</g>
		</g>
		<g>
			<g>
				<g>
					<path class="st15" d="M183,50.1c-14.3-2.9-28.2,4-35,16c-1.6,2.9-2.9,6.1-3.6,9.6c-2.1,10.5,1,20.8,7.6,28.2
						c4.6,5.1,10.8,8.9,18,10.4c0.7,0.1,1.4,0.3,2.2,0.4c3.3,0.4,6.5,0.4,9.6-0.1c13-2.1,24-12.1,26.8-25.8
						C212.2,70.9,200.7,53.7,183,50.1z M200.6,87c-2.1,10.3-10.3,17.8-20.1,19.4c-2.3,0.4-4.7,0.4-7.2,0.1c-0.5-0.1-1.1-0.2-1.6-0.3
						c-5.4-1.1-10.1-3.9-13.5-7.8c-4.9-5.6-7.3-13.3-5.7-21.1c0.5-2.6,1.4-5,2.7-7.2c5.1-9,15.5-14.2,26.2-12
						C194.7,60.8,203.3,73.8,200.6,87z"/>
				</g>
			</g>
			<g>
				<g>
					<path class="st16" d="M158.2,98.5l-6.1,5.4c-6.6-7.4-9.7-17.7-7.6-28.2c0.7-3.5,1.9-6.7,3.6-9.6l7.1,4
						c-1.2,2.2-2.1,4.6-2.7,7.2C150.9,85.2,153.2,92.9,158.2,98.5z"/>
				</g>
			</g>
			<g>
				<g>
					<path class="st17" d="M173.3,106.5l-1.1,8.1c-0.7-0.1-1.4-0.2-2.2-0.4c-7.3-1.5-13.5-5.2-18-10.4l6.1-5.4
						c3.4,3.9,8.1,6.7,13.5,7.8C172.2,106.4,172.8,106.4,173.3,106.5z"/>
				</g>
			</g>
			<g>
				<g>
					<path class="st18" d="M181.8,114.5c-3.1,0.5-6.3,0.6-9.6,0.1l1.1-8.1c2.4,0.3,4.9,0.3,7.2-0.1L181.8,114.5z"/>
				</g>
			</g>
		</g>
		<g>
			<g>
				<g>
					<path class="st15" d="M297.1,95c5.7-13.4,1.8-28.5-8.6-37.5c-2.5-2.2-5.4-4-8.7-5.4c-9.8-4.2-20.6-3.2-29.1,1.7
						c-6,3.4-10.9,8.7-13.8,15.6c-0.3,0.7-0.6,1.4-0.8,2c-1.1,3.1-1.7,6.3-1.8,9.4c-0.5,13.2,7,26,19.9,31.5
						C270.8,119.4,290,111.6,297.1,95z M257.3,104.8c-9.7-4.1-15.3-13.7-14.9-23.6c0.1-2.4,0.5-4.7,1.4-7.1c0.2-0.5,0.4-1,0.6-1.5
						c2.2-5.1,5.9-9.1,10.3-11.7c6.4-3.7,14.5-4.4,21.9-1.3c2.4,1,4.6,2.4,6.5,4.1c7.8,6.8,10.7,18.1,6.5,28.1
						C284.2,104.3,269.8,110.1,257.3,104.8z"/>
				</g>
			</g>
			<g>
				<g>
					<path class="st19" d="M254.7,60.9l-4.1-7.1c8.6-4.9,19.3-5.9,29.1-1.7c3.2,1.4,6.1,3.2,8.7,5.4l-5.4,6.2
						c-1.9-1.6-4.1-3-6.5-4.1C269.2,56.5,261.2,57.2,254.7,60.9z"/>
				</g>
			</g>
			<g>
				<g>
					<path class="st20" d="M243.8,74.1l-7.7-2.7c0.2-0.7,0.5-1.4,0.8-2c2.9-6.8,7.8-12.1,13.8-15.6l4.1,7.1
						c-4.5,2.6-8.2,6.6-10.3,11.7C244.2,73.1,244,73.6,243.8,74.1z"/>
				</g>
			</g>
			<g>
				<g>
					<path class="st21" d="M234.2,80.8c0.1-3.1,0.7-6.3,1.8-9.4l7.7,2.7c-0.8,2.3-1.3,4.7-1.4,7.1L234.2,80.8z"/>
				</g>
			</g>
		</g>
		<g>
			<g>
				<g>
					<path class="st15" d="M376.9,55.9c-11.7-8.7-27.2-8.4-38.5-0.4c-2.7,1.9-5.2,4.3-7.3,7.2c-6.4,8.6-7.9,19.2-5.2,28.7
						c1.9,6.6,5.9,12.6,11.9,17.1c0.6,0.4,1.2,0.9,1.8,1.3c2.8,1.8,5.7,3.1,8.7,4c12.7,3.6,26.9-0.7,35.3-11.9
						C394.4,87.2,391.4,66.7,376.9,55.9z M377.1,96.8c-6.3,8.4-16.9,11.7-26.4,8.9c-2.3-0.7-4.5-1.6-6.6-3c-0.5-0.3-0.9-0.6-1.4-0.9
						c-4.4-3.3-7.5-7.8-8.9-12.8c-2.1-7.1-0.9-15.1,3.9-21.5c1.6-2.1,3.4-3.9,5.5-5.4c8.4-6,20.1-6.2,28.9,0.3
						C382.9,70.6,385.2,86,377.1,96.8z"/>
				</g>
			</g>
			<g>
				<g>
					<path class="st16" d="M333.8,89.1l-7.9,2.3c-2.8-9.5-1.2-20.2,5.2-28.7c2.1-2.8,4.6-5.2,7.3-7.2l4.7,6.7
						c-2,1.5-3.9,3.2-5.5,5.4C332.9,74,331.8,81.9,333.8,89.1z"/>
				</g>
			</g>
			<g>
				<g>
					<path class="st17" d="M344.1,102.8l-4.4,6.9c-0.6-0.4-1.2-0.8-1.8-1.3c-5.9-4.4-9.9-10.5-11.9-17.1l7.9-2.3
						c1.4,4.9,4.4,9.5,8.9,12.8C343.2,102.2,343.6,102.5,344.1,102.8z"/>
				</g>
			</g>
			<g>
				<g>
					<path class="st22" d="M348.4,113.7c-3-0.9-6-2.2-8.7-4l4.4-6.9c2.1,1.3,4.3,2.3,6.6,3L348.4,113.7z"/>
				</g>
			</g>
		</g>
		<rect x="143.8" y="130.5" class="st23" width="65.5" height="5"/>
		<rect x="143.8" y="141.2" class="st23" width="49" height="5"/>
		<rect x="234.2" y="130.5" class="st23" width="36.1" height="5"/>
		<rect x="234.2" y="141.2" class="st23" width="53.6" height="5"/>
		<rect x="330.6" y="130.5" class="st23" width="40.1" height="5"/>
		<rect x="330.6" y="141.2" class="st23" width="46.5" height="5"/>
		<rect x="432.2" y="65" class="st24" width="47.6" height="4.8"/>
		<rect x="432.2" y="79.8" class="st24" width="54.7" height="4.8"/>
		<rect x="432.1" y="94.5" class="st24" width="28.3" height="4.8"/>
		<rect x="432.1" y="109.2" class="st24" width="43.6" height="4.8"/>
		<rect x="143.8" y="314.4" class="st15" width="208.4" height="4.9"/>
		<rect x="143.8" y="325.8" class="st15" width="225.1" height="4.9"/>
		<rect x="143.8" y="337.2" class="st15" width="146.1" height="4.9"/>
		<linearGradient id="SVGID_5_" gradientUnits="userSpaceOnUse" x1="305.2744" y1="316.8413" x2="71.3737" y2="316.8413">
			<stop  offset="0" style="stop-color:#40D5E6"/>
			<stop  offset="1" style="stop-color:#5577FF"/>
		</linearGradient>
		<rect x="143.8" y="314.4" class="st25" width="108.5" height="4.9"/>
		<linearGradient id="SVGID_6_" gradientUnits="userSpaceOnUse" x1="305.2737" y1="328.2434" x2="71.3734" y2="328.2434">
			<stop  offset="0" style="stop-color:#40D5E6"/>
			<stop  offset="1" style="stop-color:#5577FF"/>
		</linearGradient>
		<rect x="143.8" y="325.8" class="st26" width="117.2" height="4.9"/>
		<linearGradient id="SVGID_7_" gradientUnits="userSpaceOnUse" x1="305.2735" y1="339.6449" x2="71.3745" y2="339.6449">
			<stop  offset="0" style="stop-color:#40D5E6"/>
			<stop  offset="1" style="stop-color:#5577FF"/>
		</linearGradient>
		<rect x="143.8" y="337.2" class="st27" width="76.1" height="4.9"/>
		<path class="st28" d="M555.7,388.6h-131c-9.4,0-17.1-7.7-17.1-17.1V167.8c0-9.4,7.7-17.1,17.1-17.1h131c9.4,0,17.1,7.7,17.1,17.1
			v203.6C572.8,380.9,565.1,388.6,555.7,388.6z"/>
		<g>
			<g>
				<rect x="426.5" y="269.6" class="st29" width="0.7" height="83.5"/>
			</g>
			<g>
				<rect x="458.2" y="269.6" class="st29" width="0.7" height="83.5"/>
			</g>
			<g>
				<rect x="489.8" y="269.6" class="st29" width="0.7" height="83.5"/>
			</g>
			<g>
				<rect x="521.5" y="269.6" class="st29" width="0.7" height="83.5"/>
			</g>
			<g>
				<rect x="553.2" y="269.6" class="st29" width="0.7" height="83.5"/>
			</g>
		</g>
		<linearGradient id="SVGID_8_" gradientUnits="userSpaceOnUse" x1="426.8235" y1="314.3976" x2="553.5068" y2="314.3976">
			<stop  offset="0" style="stop-color:#40D5E6"/>
			<stop  offset="1" style="stop-color:#5577FF"/>
		</linearGradient>
		<path class="st30" d="M426.8,319.3c0,0,11.7,7.1,24.2-5.8c12.5-12.9,25.9-23,38.6-12.2c12.7,10.8,20.5,13.5,33.3,1.4
			c12.7-12.2,11.7-27.1,30.6-27.1v77.6H426.8V319.3z"/>
		<rect x="426.8" y="262.7" class="st31" width="12.6" height="3"/>
		<rect x="458.5" y="262.7" class="st31" width="7.9" height="3"/>
		<rect x="490.2" y="262.7" class="st31" width="9.7" height="3"/>
		<rect x="521.8" y="262.7" class="st31" width="14.9" height="3"/>
		<rect x="553.5" y="262.7" class="st31" width="5.2" height="3"/>
		<rect x="505.6" y="207.8" class="st15" width="42.3" height="5.4"/>
		<rect x="505.6" y="230.2" class="st15" width="38.9" height="5.4"/>
		<rect x="505.6" y="219" class="st15" width="33.6" height="5.4"/>
		<linearGradient id="SVGID_9_" gradientUnits="userSpaceOnUse" x1="460.2465" y1="165.7081" x2="460.2465" y2="259.5001">
			<stop  offset="0" style="stop-color:#40D5E6"/>
			<stop  offset="1" style="stop-color:#5577FF"/>
		</linearGradient>
		<circle class="st32" cx="460.2" cy="200.1" r="7.4"/>
		<linearGradient id="SVGID_10_" gradientUnits="userSpaceOnUse" x1="460.1815" y1="165.7065" x2="460.1815" y2="259.5014">
			<stop  offset="0" style="stop-color:#40D5E6"/>
			<stop  offset="1" style="stop-color:#5577FF"/>
		</linearGradient>
		<path class="st33" d="M473.6,224.2v14.1c-4.1,1.9-8.6,2.9-13.4,2.9c-4.8,0-9.3-1-13.4-2.9v-14.1c0-7.4,6-13.4,13.4-13.4
			S473.6,216.8,473.6,224.2z"/>
		<g>
			<linearGradient id="SVGID_11_" gradientUnits="userSpaceOnUse" x1="460.181" y1="183.5374" x2="460.181" y2="259.9931">
				<stop  offset="0" style="stop-color:#40D5E6"/>
				<stop  offset="1" style="stop-color:#5577FF"/>
			</linearGradient>
			<path class="st34" d="M460.2,242.1c-4.8,0-9.4-1-13.8-3c-11.9-5.4-19.6-17.3-19.6-30.4c0-18.4,15-33.4,33.4-33.4
				c18.4,0,33.4,15,33.4,33.4c0,13.1-7.7,25-19.6,30.4C469.6,241.1,465,242.1,460.2,242.1z M460.2,177.2
				c-17.4,0-31.6,14.2-31.6,31.6c0,12.4,7.3,23.7,18.5,28.8c4.1,1.9,8.5,2.8,13.1,2.8c4.6,0,8.9-0.9,13.1-2.8
				c11.3-5.1,18.5-16.4,18.5-28.8C491.8,191.3,477.6,177.2,460.2,177.2z"/>
		</g>
		<g>
			<path class="st20" d="M80.6,288.4c0,0,9.1-20.7-1.5-19c0,0-3.6,3-7.3,9.1c-2.8,4.6-8.6,16.8-8.4,20.9c0.2,4.1,3.1,7.2,6.3,13.8
				c0,0,6.6,12.3,6.9,13.8l7-3.6c0,0-5.9-11.8-10.1-22.1L80.6,288.4z"/>
			
				<linearGradient id="SVGID_12_" gradientUnits="userSpaceOnUse" x1="-234.2118" y1="326.6655" x2="-90.0547" y2="326.6655" gradientTransform="matrix(1 0 0 1 257.2118 0)">
				<stop  offset="0" style="stop-color:#FF9F55"/>
				<stop  offset="1" style="stop-color:#FFD255"/>
			</linearGradient>
			<polygon class="st35" points="27.1,350.5 167.2,326.6 163.1,302.8 23,326.7 			"/>
			
				<rect x="165.1" y="304.9" transform="matrix(-0.9858 0.1678 -0.1678 -0.9858 388.0641 595.4022)" class="st36" width="7.6" height="18.3"/>
			<path class="st37" d="M133.5,463.9h1.7c0,0-0.6-6.5,1-6.6c1.6-0.1,5.6,5.3,7.9,6.1c2.4,0.8,14.5,1.5,14.6-0.7
				c0.1-2.2-4.7-3.1-6.1-3.8c-1.5-0.6-8.6-7.6-9.9-8.4c-1.3-0.8-3.5-6.6-3.5-6.6l-6.8-0.3c0,0-0.4,5.4-0.8,8.3
				c-0.2,1.1-0.3,2-0.3,2.7C131.4,457,133.5,463.9,133.5,463.9z"/>
			<path class="st37" d="M89.9,462.6h1.4v-6.1c1.2,0.1,5.2,3.9,6.5,5c1.2,1.1,3,1.1,8.2,1.4c5.2,0.3,5.7-2.8,4.9-3.9
				c-0.8-1.1-3.5-1.5-4.9-2.2c-1.4-0.7-6.9-6.9-8.4-8.4c-1.5-1.5-2.4-5.7-2.4-5.7l-6.1,0.5c0,0,0,3.9-0.7,7.1v0c0,0,0,0,0,0
				c-0.1,0.3-0.1,0.5-0.2,0.8C87.4,454.6,89.9,462.6,89.9,462.6z"/>
			<path class="st38" d="M112.6,325.1c0,0,2.3,5.5,2.5,6.9c0.2,1.4,5.6,14.5,7.2,23.3c0.9,5.3,3.5,21.9,3.7,24
				c0.4,3.6,2.1,11.6,2.3,15.2c0.1,2.1,10.3,33.7,12.7,50.2c0,0-5.8,0.9-10.2-0.3c0,0-8.9-17.1-13.8-41.2c-3-14.6-5.6-22.3-7.9-28.3
				c-2.3-6-15.4-23-16.7-24.9c-1.4-1.9-9.9-12.5-1.8-23.9C98.7,314.6,112.6,325.1,112.6,325.1z"/>
			<path class="st38" d="M83.4,373.7c0.7,4.9,0,11.4-1.6,29.4c-1.5,18,2.7,39.8,2.7,39.8c5.3,1.8,11.5,0,11.5,0
				c-0.1-1.3,0-43.8,0-47.6c0-3.8,1.1-8.1,1.4-12.5c0.2-3,1.6-8.4,3.1-14c0.5-1.7,0.9-3.4,1.4-5c0,0,0,0,0,0
				c0.3-0.9,0.5-1.8,0.8-2.7c2.2-7.6,5.1-36.9,5.1-36.9s-16.3-13.1-24.3-0.8c-7.9,12.4-3.9,21.4-3.6,22.9
				C80.2,347.8,82.6,368.8,83.4,373.7z"/>
			<path class="st39" d="M90.1,347.2c0.1,0.3,8.3,18.3,10.3,21.4c0.5-1.7,0.9-3.4,1.4-5c0,0,0,0,0,0S90.4,347.6,90.1,347.2z"/>
			<path class="st40" d="M89.9,462.6h1.4v-6.1c1.2,0.1,5.2,3.9,6.5,5c1.2,1.1,3,1.1,8.2,1.4c5.2,0.3,5.7-2.8,4.9-3.9
				c-0.8-1.1-3.5-1.5-4.9-2.2c-5.6,0.3-12.5-7.6-15.8-7.6c-1.7,0-1.7,1-1.8,1.2v0c0,0,0,0,0,0c-0.1,0.3-0.1,0.5-0.2,0.8
				C87.4,454.6,89.9,462.6,89.9,462.6z"/>
			<path class="st40" d="M133.5,463.9h1.7c0,0-0.6-6.5,1-6.6c1.6-0.1,5.6,5.3,7.9,6.1c2.4,0.8,14.5,1.5,14.6-0.7
				c0.1-2.2-4.7-3.1-6.1-3.8c-5,0-13.1-5.5-15.7-6.6c-2.5-1.1-5.3-0.4-5.3-0.4c-0.2,1.1-0.3,2-0.3,2.7
				C131.4,457,133.5,463.9,133.5,463.9z"/>
			<path class="st37" d="M98.2,256.3c0,0-2.6,6.9-0.6,12.2c0,0-9.5-0.6-9.9-1.7c-0.4-1.1,0.4-11.4-0.9-14.5
				C85.5,249.3,98.2,256.3,98.2,256.3z"/>
			<path class="st20" d="M99.1,266.2c0,0,5.6,2,8.2,2.6c2.5,0.6,7.9,3.1,7.4,12.6c-0.4,9.5-2,17.8-2.6,21.8
				c-0.6,4.1-0.2,14.5,0.7,19.5c0,0-13.5,3.4-29.4,0c0,0,2.8-8.6,2.7-10.8c-0.1-2.2-9.4-20.6-9.8-23.5c-0.4-2.9-2.3-15.7,2-18.5
				c4.3-2.8,7.7-2.5,9.5-3.7C89.6,264.9,96.5,265.3,99.1,266.2z"/>
			<path class="st20" d="M77.3,337.7c23.1,6.1,41.5,0,41.5,0c-1.7-3.4-2.9-6.9-3.8-10.2c0,0,0,0,0,0c-0.6-2.4-1.1-4.6-1.4-6.9v0
				c-1.9-12.6,0.6-22.2,0.6-22.2c-2.7-21.9-35.9-28.5-38.5-21.5c-2.7,7,5.2,36.8,5.5,39.4C81.6,318.9,77.3,337.7,77.3,337.7z"/>
			<path class="st37" d="M89.9,228.7c3.8-1.3,14.2-2.7,16.9,13.2c2.7,15.9-3.1,16.2-9.1,15.7c-5.9-0.5-15.2-11.2-16-14.5
				C81,239.9,78.9,232.5,89.9,228.7z"/>
			<path class="st41" d="M104.6,234.8c0,0-3.2,6.8-7.3,9.1c0,0-2.6,7.2-8.2,10.1c0,0-15-9.9-6.3-21.7
				C91.4,220.6,103.6,230,104.6,234.8z"/>
			<path class="st37" d="M97.6,241.6c-0.3-0.8-2.6-2.2-3.6,0.1c-1,2.3,2.6,6.3,3.6,6.1C98.6,247.5,98.9,244.8,97.6,241.6z"/>
			<path class="st41" d="M83.2,234.2c-0.3-0.5-10.2-5.1-12.3,4.5c-2.1,9.6,8,20.7,9.7,25.5c1.8,4.8-0.8,16-0.8,16s6-5.7,7.9-11.7
				C89.8,262,90.4,245.4,83.2,234.2z"/>
			<path class="st42" d="M82.7,233.9c0,0,3,2.4,3.4,6.2c0,0,0.6-3-0.7-4.8C84.3,233.5,82.7,233.9,82.7,233.9z"/>
			<path class="st43" d="M115,327.5c-0.6-2.4-1.1-4.6-1.4-6.9v0c0,0-1.5-3.2-2-4.8c-0.5-1.5-4.3-20.6-4.3-20.6
				S103.2,313.1,115,327.5z"/>
			<path class="st37" d="M132,328.6c0,0,3,3,3.9,3.3c1,0.3,2.8-1.3,9.7-1.9c0.6,0,1.7,0.5,1.4,1.3c-0.2,0.8-3.2,3-4.5,3.3
				c-1.3,0.3-7.3,2.7-10.2,1.5c-2.9-1.2-4.9-4.9-4.9-4.9L132,328.6z"/>
			<path class="st20" d="M108.9,269.3c0,0,7.9,3.1,8.4,14.1c0.5,11,0.9,16.7,1.3,18.4c0.4,1.7,1.2,8.5,3.2,12.6
				c1.9,4,14.6,16.6,14.6,16.6l-6.1,5.8c0,0-17.7-17.7-18.7-21c-1.1-3.2-5.5-25.8-5.8-29.6C105.4,283.2,101.4,269.5,108.9,269.3z"/>
			<circle class="st44" cx="256.8" cy="294.6" r="75.8"/>
			<path class="st45" d="M207.3,239.6c0,0,96-11.9,115.2,89.5l0,0c5.5-10.4,8.6-22.2,8.6-34.7c0-40.9-33.1-74-74-74
				C238,220.3,220.5,227.6,207.3,239.6z"/>
			<path class="st46" d="M256.8,206.6c-48.6,0-87.9,39.4-87.9,87.9c0,48.6,39.4,87.9,87.9,87.9s87.9-39.4,87.9-87.9
				C344.7,246,305.4,206.6,256.8,206.6z M256.8,368.2c-40.7,0-73.6-33-73.6-73.6c0-40.7,33-73.6,73.6-73.6s73.6,33,73.6,73.6
				C330.4,335.2,297.5,368.2,256.8,368.2z"/>
		</g>
		<g>
			<g>
				<polygon class="st47" points="549.7,286 527.9,298.1 505.9,263.5 532.5,254.3 				"/>
			</g>
			<g>
				<polygon class="st48" points="548.3,285 527.9,296.2 507.4,263.9 532.2,255.3 				"/>
			</g>
			<g>
				<path class="st49" d="M555.8,278.9c0,0-3.8-1.8-5.5-2.8c-1.7-1-6-2.3-6.3-2.6c-0.3-0.3-12.7-1.1-13.5-1.7
					c-0.8-0.6-1.5,1.5,1.7,2.2c3.2,0.7,7.7,2.4,7.9,3.7c0.2,1.3-3.3,1.6-3.7,2.6c-0.4,1,0.1,0.8,0.6,1c0.5,0.2,4.2-1.8,5.8-1.2
					c1.6,0.6,4.1-0.2,5.4,0.2c1.2,0.4,7.3,2.5,7.3,2.5L555.8,278.9z"/>
			</g>
			<g>
				<path class="st50" d="M549,281.6l-2-0.7c0,0,2.4-5.7,3.5-5.6c1.2,0.2,2.8,0.6,2.8,0.6L549,281.6z"/>
			</g>
			<g>
				<path class="st51" d="M548.5,282.6c0.3-0.2,4.2-7.7,4.2-7.7l8.4,1.1l-4.5,8.9L548.5,282.6z"/>
			</g>
			<g>
				<path class="st49" d="M526.8,293.7c0,0-3.2-2.9-4.7-4.1c-1.5-1.2-4.5-4.7-4.9-5c-0.4-0.2-6-11.6-6.9-12c-0.9-0.5,0.9-2,2.8,0.8
					c1.9,2.8,5.3,6.3,6.6,6c1.3-0.3,0.2-3.7,1-4.5c0.8-0.7,0.8-0.2,1.2,0.2c0.4,0.4-0.1,4.7,1.1,6c1.2,1.3,1.4,4,2.3,5
					c0.9,1,5.2,5.9,5.2,5.9L526.8,293.7z"/>
			</g>
			<g>
				<path class="st52" d="M595.7,447.5c0,0,0.7,4.8,0.8,5.5c0.1,0.7,7.7-0.4,7.7-0.4l0.6-5.7C604.8,446.9,596.6,446.9,595.7,447.5z"
					/>
			</g>
			<g>
				<path class="st47" d="M596.4,452.5c0,0-2.4,2.9-4.7,4.2c-2.3,1.3-6,1.8-7.4,3.1c-1,0.9-3.6,5,6.1,4.9c9.7-0.1,14.4,0.6,15.4-1
					c1-1.6-1.5-11.5-1.5-11.5S601.9,453,596.4,452.5z"/>
			</g>
			<g>
				<path class="st52" d="M541.2,447.5c0,0,0.7,4.8,0.8,5.5c0.1,0.7,7.7-0.4,7.7-0.4l0.6-5.7C550.2,446.9,542.1,446.9,541.2,447.5z"
					/>
			</g>
			<g>
				<path class="st47" d="M541.8,452.5c0,0-2.4,2.9-4.7,4.2c-2.3,1.3-10.9,2.3-12.3,3.6c-1,0.9-2.7,4.7,11,4.4
					c9.7-0.3,14.4,0.6,15.4-1c1-1.6-1.5-11.5-1.5-11.5S547.5,453,541.8,452.5z"/>
			</g>
			<g>
				<path class="st47" d="M589.4,324.2c0,0,7.2,11.4,6.6,21.6c-0.5,10.3,2.6,21.5,3.7,32.2c1.2,12,6.1,40.3,6.3,46.7
					c0.2,6.4-0.8,26.8-0.8,26.8l-9.8,0.2c0,0-8.2-49.5-10.4-54.5c-2.1-5-12.7-41-13.1-45.1C571.6,348,589.4,324.2,589.4,324.2z"/>
			</g>
			<g>
				<path class="st47" d="M551.7,325.7c0,0-5.4,28.1-6.1,34.4c-0.7,6.3-1.2,30.4-1.5,34.3c-0.4,3.9-2.4,51.4-4.3,57.2h12.5
					c0,0,9.6-34.5,9.6-50.8c0-16.3,7.4-35.5,12.2-46.3c4.8-10.8,15.8-11,18.7-31C593,323.6,555.7,319.4,551.7,325.7z"/>
			</g>
			<g>
				<path class="st49" d="M577.4,228.7c0,0-9.6-3.6-14,3.7c-4.4,7.3-4,21.9,0.8,23.7c4.8,1.8,12.1,0.9,14.6-3.7
					c2.5-4.6,4.7-11.2,4.6-15.6C583.3,232.4,580,230,577.4,228.7z"/>
			</g>
			<g>
				<path class="st49" d="M565.3,256.5c0,0,0.4,2.6-0.3,3.9c-0.7,1.3,12.4,1.3,12.4,1.3s1.1-6.9,3.1-12.8
					C582.6,243,565.3,256.5,565.3,256.5z"/>
			</g>
			<g>
				<path d="M580.5,248.8c0,0-0.9,1.5-4.6,0.9c-3.7-0.6-8.2-5.5-9.7-6c-1.5-0.5-1.6-1.4-1.6-1.4l-1,1.4l-1.6,0.1
					c0,0,1.5-4.4-0.8-6.2c-2.3-1.8,3.4-15.1,15.2-11c0,0,9.6,2.4,9.3,7.6C585.4,239.4,582.6,246.3,580.5,248.8z"/>
			</g>
			<g>
				<path class="st48" d="M564.3,260.2c0,0,0-2.4,1.1-2.7c1.1-0.2,12.2-1.3,13.6-0.8v2.8C579,259.6,576.3,261.2,564.3,260.2z"/>
			</g>
			<g>
				<path class="st49" d="M564.9,240.4c0.2-0.9,2.4-3.3,3.3-0.7s-1.3,6.2-2.5,5.9C564.5,245.3,564.4,242.6,564.9,240.4z"/>
			</g>
			<g>
				<path class="st53" d="M520.2,289C520.2,289,520.2,289,520.2,289C520.2,289,520.2,289,520.2,289z"/>
			</g>
			<g>
				<path class="st53" d="M597.4,351.2c0,0-5.9,1.7-15.9,2.8c-10,1.1-35.1-0.4-35.3-1.6c-0.2-1.2,5.4-44.1,5.1-46.4
					c-0.3-2.2-0.5-10.1-0.5-10.1c-0.1,2.2-2.3,11-5,15.8c-1,1.7-4.2,7.2-5.7,5.9c-7.5-6-19.1-28.6-19.9-28.8
					c0.6-0.3,5.5-2.5,6.2-2.8c0.6-0.2,6,5.5,9.3,9.1c1.5,1.6,2.5,2.7,2.5,2.7c0.9-2.1,4.4-15.6,5.5-20.2c2.4-10.5,2-10.9,2-10.9
					c7.3-2.2,18.5-6.7,18.5-6.7l14.7-0.6c0,0,13.5,3,18.8,5.4c0.5,0.2,0.5,12,1.9,15.1l-4.4,9.3c0,0-2.5,18.4-3.1,26.6
					C591.9,319.7,597.4,351.2,597.4,351.2z"/>
			</g>
			<g>
				<path class="st53" d="M600.3,295.4c-0.4,1.2-2.1,2.3-3.3,2.7c-0.7,0.3-1.5,0.4-2.4,0.2l-0.6-0.1l0,0l-10.1-1.9
					c0,0-2.2-25.4,13.8-31.5C598.2,265.1,603.8,284,600.3,295.4z"/>
			</g>
			<g>
				<path class="st54" d="M597,298.2L597,298.2c-0.7,0.3-1.5,0.4-2.4,0.2l-0.6-0.1l0,0l1-13L597,298.2z"/>
			</g>
			<g>
				<path class="st54" d="M538.3,298.1l-1.2,5.2c0,0-1.3-5.2-1.3-8C537.2,296.9,538.3,298.1,538.3,298.1z"/>
			</g>
			<g>
				<path d="M580.2,229.5c0,0,12.6-1.5,0.2,19.6L580.2,229.5z"/>
			</g>
			<g>
				<polygon class="st47" points="516,261.6 514.7,259.4 524.8,256 526.1,258.1 				"/>
			</g>
		</g>
	</g>
</g>
</svg>
