<?xml version="1.0" encoding="utf-8"?>
<!-- Generator: Adobe Illustrator 21.0.0, SVG Export Plug-In . SVG Version: 6.00 Build 0)  -->
<svg version="1.1" id="understand-icon" xmlns="http://www.w3.org/2000/svg" xmlns:xlink="http://www.w3.org/1999/xlink" x="0px"
	 y="0px" viewBox="0 0 340 200" style="enable-background:new 0 0 340 200;" xml:space="preserve">
<style type="text/css">
	.icon-white{fill:#FFFFFF;}
	.icon-orange{fill:#F9A918;}
</style>
<g>
	<g>
		<path class="icon-white" d="M20,118.5c0.2-1,0.4-2.1,0.7-3.1c0.5-1.7,1-3.3,1.5-5c0.6-2,1.8-3.5,3.5-4.7c2.9-2.2,6-3.8,9.2-5.4
			c3.8-1.8,7.7-3.3,11.7-4.8c0.2-0.1,0.4,0,0.6,0.1c1.2,1,2.3,2,3.5,3c2.2,1.7,4.6,3.1,7.4,3.7c7.2,1.7,13.6,0.2,19.3-4.6
			c0.8-0.7,1.5-1.4,2.3-2.1c0.1-0.1,0.3-0.2,0.4-0.1c6.8,2.4,13.3,5.3,19.4,9c0.4,0.2,0.8,0.5,1.1,0.8c2,1.4,3.4,3.3,4.2,5.6
			c0.8,2.4,1.6,4.8,2,7.3c0,0.1,0,0.1,0.1,0.2c0,0.5,0,0.9,0,1.4c-0.5,2.4-2.1,4.1-4,5.5c-0.5,0.4-1.1,0.8-1.6,1.1
			c-3.3,2-6.8,3.4-10.5,4.4C83,133.1,75,134,67,134.2c-5.2,0.2-10.3,0-15.5-0.6c-4.6-0.5-9.1-1.2-13.5-2.3c-4-1-8-2.3-11.6-4.4
			c-2.9-1.7-5.5-3.6-6.4-7.2C20,119.3,20,118.9,20,118.5z"/>
		<path class="icon-white" d="M84.5,71C84.1,80,81,87.7,74.3,93.7c-1.8,1.7-3.9,3-6.3,3.8c-1.9,0.6-3.9,0.6-5.9,0.6c-3.3-0.1-6-1.5-8.5-3.4
			c-4.8-3.7-7.8-8.6-9.8-14.2c-1.3-3.7-1.9-7.6-1.5-11.5c0.4-4.4,2-8.3,4.7-11.8c3.6-4.6,8.3-7.3,14.1-8.1c3.4-0.5,6.7,0.1,9.8,1.4
			c6.9,2.9,11.1,8.1,12.9,15.2C84.4,67.4,84.4,69.2,84.5,71z"/>
	</g>
	<g>
		<path class="icon-white" d="M233.2,118.5c0.2-1,0.4-2.1,0.7-3.1c0.5-1.7,1-3.3,1.5-5c0.6-2,1.8-3.5,3.5-4.7c2.9-2.2,6-3.8,9.2-5.4
			c3.8-1.8,7.7-3.3,11.7-4.8c0.2-0.1,0.4,0,0.6,0.1c1.2,1,2.3,2,3.5,3c2.2,1.7,4.6,3.1,7.4,3.7c7.2,1.7,13.6,0.2,19.3-4.6
			c0.8-0.7,1.5-1.4,2.3-2.1c0.1-0.1,0.3-0.2,0.4-0.1c6.8,2.4,13.3,5.3,19.4,9c0.4,0.2,0.8,0.5,1.1,0.8c2,1.4,3.4,3.3,4.2,5.6
			c0.8,2.4,1.6,4.8,2,7.3c0,0.1,0,0.1,0.1,0.2c0,0.5,0,0.9,0,1.4c-0.5,2.4-2.1,4.1-4,5.5c-0.5,0.4-1.1,0.8-1.6,1.1
			c-3.3,2-6.8,3.4-10.5,4.4c-7.7,2.3-15.6,3.2-23.7,3.4c-5.2,0.2-10.3,0-15.5-0.6c-4.6-0.5-9.1-1.2-13.5-2.3c-4-1-8-2.3-11.6-4.4
			c-2.9-1.7-5.5-3.6-6.4-7.2C233.2,119.3,233.2,118.9,233.2,118.5z"/>
		<path class="icon-white" d="M297.7,71c-0.4,8.9-3.5,16.6-10.2,22.7c-1.8,1.7-3.9,3-6.3,3.8c-1.9,0.6-3.9,0.6-5.9,0.6
			c-3.3-0.1-6-1.5-8.5-3.4c-4.8-3.7-7.8-8.6-9.8-14.2c-1.3-3.7-1.9-7.6-1.5-11.5c0.4-4.4,2-8.3,4.7-11.8c3.6-4.6,8.3-7.3,14.1-8.1
			c3.4-0.5,6.7,0.1,9.8,1.4c6.9,2.9,11.1,8.1,12.9,15.2C297.6,67.4,297.7,69.2,297.7,71z"/>
	</g>
	<g>
		<path class="icon-orange" d="M113.9,119.2c18.5,30.9,58.6,40.9,89.5,22.4c11.4-6.8,20-16.6,25.3-27.8c-1.2-2.2-2.8-4.1-5-5.6
			c-0.6-0.4-1.1-0.8-1.7-1.1c-9-5.5-18.6-9.8-28.5-13.2c-0.2-0.1-0.5,0-0.6,0.2c-1.1,1-2.2,2.1-3.4,3.1c-8.3,7.1-17.7,9.3-28.3,6.8
			c-4-1-7.5-3-10.8-5.5c-1.8-1.3-3.4-2.9-5.1-4.3c-0.2-0.2-0.6-0.3-0.8-0.2c-5.8,2.2-11.6,4.3-17.2,7.1c-4.7,2.3-9.3,4.7-13.6,7.9
			c-1.3,1-2.5,2.1-3.4,3.4C111.4,114.7,112.6,117,113.9,119.2z"/>
		<path class="icon-orange" d="M200,58c-0.5,13.1-5.2,24.4-15,33.3c-2.7,2.4-5.7,4.4-9.2,5.6c-2.8,0.9-5.7,0.9-8.6,0.8
			c-4.8-0.1-8.8-2.2-12.4-5c-7-5.4-11.5-12.6-14.3-20.9c-1.9-5.5-2.7-11.1-2.3-16.9c0.5-6.5,2.9-12.2,6.9-17.3
			c5.2-6.8,12.2-10.7,20.6-11.9c5-0.7,9.8,0.2,14.4,2.1c10.1,4.2,16.3,11.8,19,22.3C199.8,52.6,200,55.3,200,58z"/>
	</g>
	<g>
		<polygon class="icon-white" points="63.2,198.1 109.8,158 94.8,140.5 48.3,180.6 		"/>

			<rect x="103.9" y="136" transform="matrix(-0.7595 0.6505 -0.6505 -0.7595 283.3551 184.783)" class="icon-white" width="7.2" height="17.5"/>
		<path class="icon-white" d="M126.8,13.8C87.1,37.6,74.2,89.1,98,128.8c23.8,39.7,75.3,52.6,115,28.8c39.7-23.8,52.6-75.3,28.8-115
			C218,3,166.5-10,126.8,13.8z M205.9,145.9c-33.2,19.9-76.3,9.1-96.2-24.1c-19.9-33.2-9.1-76.3,24.1-96.2
			C167,5.6,210.1,16.4,230,49.7C250,82.9,239.2,126,205.9,145.9z"/>
	</g>
</g>
</svg>
