<?xml version="1.0" encoding="utf-8"?>
<!-- Generator: Adobe Illustrator 21.0.0, SVG Export Plug-In . SVG Version: 6.00 Build 0)  -->
<svg version="1.1" id="costs-icon" xmlns="http://www.w3.org/2000/svg" xmlns:xlink="http://www.w3.org/1999/xlink" x="0px" y="0px"
	 viewBox="0 0 340 200" style="enable-background:new 0 0 340 200;" xml:space="preserve">
<style type="text/css">
	.icon-white{fill:#FFFFFF;}
	.icon-orange{fill:#F9A918;}
</style>
<g>
	<path class="icon-white" d="M227.2,147.1c-32.2,11.8-63,23.1-93.7,34.4c-1.1,0.4-3.1,1.1-3.1,0.9c-4.7-9.5-18.7-7.1-22.5-17.6
		c-1.5-4.1-2.6-8.2-4.4-12.2c-2.4-5.6-3.9-10.6,1.9-15.2c1.5-1.2,2.6-4.4,2.2-6.3c-1.8-8.8,3.5-11.1,10.3-13.5
		c19.8-7,39.3-14.8,59-21.9c2.4-0.9,6.8-0.9,8.1,0.6C199,112.7,212.6,129.4,227.2,147.1z M192.5,136.2
		c-0.1-15.4-12.8-28.5-27.6-28.3c-13.3,0.1-23.4,10.7-23.5,24.6c-0.1,15.5,12.3,28.5,27.2,28.6C182.5,161.1,192.6,150.7,192.5,136.2
		z"/>
	<path class="icon-orange" d="M216.8,46.1c-22.8,8.6-45.5,17.6-68.5,25.5c-11.8,4.1-20.9,10.5-27.3,21.1c-4,6.6-9.7,10.4-17.7,10.5
		c-11,0.1-19-6.4-19.7-16.2c-0.7-9.5,6.7-18.1,17.1-19.1c4.5-0.4,9.5-0.6,13.6,1c7.3,2.7,12,0.3,17.6-4.2c6.2-5,13.6-9.4,21.2-11.9
		c13-4.3,26.5-7.6,40-10c7.5-1.4,15.5-0.2,23.3-0.2C216.6,43.7,216.7,44.9,216.8,46.1z M117.7,84.4c0-6.6-6.2-11.3-14.6-11.2
		c-7.7,0.1-14.5,6.4-14.3,13.2c0.2,6.3,7,12,14.5,12C111.5,98.3,117.7,92.3,117.7,84.4z"/>
	<path class="icon-white" d="M233.5,134.9c-14-16.9-28-33.9-42.6-51.7c8.1-3,15.2-5.7,19.1-7.2c8.3,4.3,14.3,7.3,20.1,10.6
		c1.5,0.9,2.9,2.7,3.6,4.3c2,4.8,3.4,9.7,5.3,14.5c2.1,5.4,3.7,9.9-1.8,15.2C234.4,123.5,234.8,129.6,233.5,134.9z"/>
	<path class="icon-white" d="M111.4,198c-9.3-25.5-18.2-49.9-27.5-75.4c31.9-12.1,63-23.8,94.1-35.6c0.4,1.1,0.9,2.2,1.3,3.3
		c-29.7,11.3-59.3,22.5-90,34.1c8.1,22.8,16,45.1,24.3,68.5c39.3-14.4,77.8-28.5,116.3-42.6c0.4,1,0.8,2.1,1.1,3.1
		C191.6,168.2,152.1,182.9,111.4,198z"/>
	<path class="icon-orange" d="M144.5,48.3c-2.5,1-5.7,2.3-6.7,2.7c-5.6-3.7-9.9-6.6-14.2-9.4c-4.5-2.9-9.7-5.1-13.6-8.7
		c-6.1-5.6-7.2-13.1-4.3-20.7c2.7-6.9,8.8-10.1,15.8-10c8.7,0.2,15.4,4.5,18.9,12.7c1.3,3.1,1.6,6.7,1.9,10.1
		C143.1,32.4,143.7,39.7,144.5,48.3z M136.9,21.8c-0.1-7.6-7.4-14-15.8-13.9c-7.2,0.1-11.5,4.2-11.5,11c0,8.3,7.6,15.7,16.3,15.7
		C132.5,34.7,137,29.3,136.9,21.8z"/>
	<path class="icon-white" d="M258,135.1c-6.6,2.7-12.4,5.1-18.2,7.5c-0.4-0.9-0.8-1.7-1.2-2.6c3-1.4,6.4-2.3,8.9-4.4
		c1.9-1.5,4.2-5.1,3.6-6.8c-7-20.9-14.6-41.7-22.3-63.5c-13.9,4.9-27.4,9.6-40.9,14.3c-0.4-1.1-0.7-2.1-1.1-3.2
		c14.1-5.4,28.3-10.8,43.6-16.7C239.7,85,248.7,109.7,258,135.1z"/>
	<path class="icon-orange" d="M149.3,78.3c5-1.9,9.5-3.7,14.1-5.5c2.8,3.3,5.3,6.4,7.8,9.4C159.9,90.7,158,90.4,149.3,78.3z"/>
	<path class="icon-white" d="M181.3,135.5c0-8.7-7.2-16-15.5-15.9c-7.5,0.1-13.2,6-13.2,13.8c-0.1,8.7,6.9,16,15.3,16.1
		C175.7,149.4,181.4,143.6,181.3,135.5z"/>
</g>
</svg>
