<?xml version="1.0" encoding="utf-8"?>
<!-- Generator: Adobe Illustrator 21.0.0, SVG Export Plug-In . SVG Version: 6.00 Build 0)  -->
<svg version="1.1" id="mail" xmlns="http://www.w3.org/2000/svg" xmlns:xlink="http://www.w3.org/1999/xlink" x="0px" y="0px"
	 viewBox="0 0 21 21" style="enable-background:new 0 0 21 21;" xml:space="preserve">
<style type="text/css">
	.st0{fill:#FFFFFF;}
	.st1{fill:#4A2E86;}
</style>
<path class="st0" d="M19,21H2c-1.1,0-2-0.9-2-2V2c0-1.1,0.9-2,2-2h17c1.1,0,2,0.9,2,2v17C21,20.1,20.1,21,19,21z"/>
<path class="st1" d="M16,5H5C4,5,3.3,5.7,3.3,6.7v7.7C3.3,15.3,4,16,5,16h11c0.9,0,1.7-0.7,1.7-1.7V6.7C17.7,5.7,17,5,16,5z
	 M16,14.5H5c-0.1,0-0.3-0.1-0.3-0.2V7.7l5,4.2C9.8,12,9.9,12,10.1,12h0.8c0.1,0,0.3,0,0.4-0.1l5-4.2v6.7
	C16.3,14.5,16.2,14.5,16,14.5z M10.5,10.6L5.6,6.5h9.7L10.5,10.6z"/>
</svg>
