<?xml version="1.0" encoding="utf-8"?>
<!-- Generator: Adobe Illustrator 21.0.0, SVG Export Plug-In . SVG Version: 6.00 Build 0)  -->
<svg version="1.1" id="BODY" xmlns="http://www.w3.org/2000/svg" xmlns:xlink="http://www.w3.org/1999/xlink" x="0px" y="0px"
	 viewBox="0 0 548.6 321.5" style="enable-background:new 0 0 548.6 321.5;" xml:space="preserve">
<style type="text/css">
	.st0{fill:#AFB5EC;}
	.st1{fill:#404DC4;}
	.st2{fill:#5B62DB;}
	.st3{fill:#312C76;}
	.st4{opacity:0.16;}
	.st5{fill:#5571E9;}
	.st6{fill:#1B1754;}
	.st7{fill:#243051;}
	.st8{fill:#2A2B7B;}
	.st9{fill:#F04365;}
	.st10{fill:#8C6239;}
	.st11{fill:#D72E57;}
	.st12{fill:#754C24;}
	.st13{clip-path:url(#XMLID_2_);fill:#243051;}
	.st14{fill:#FDD63B;}
	.st15{fill:#F2A62F;}
	.st16{clip-path:url(#XMLID_3_);fill:#243051;}
	.st17{clip-path:url(#XMLID_4_);fill:#FAFAFA;}
	.st18{fill:#EB9924;}
	.st19{clip-path:url(#XMLID_5_);fill:#FFFFFF;}
</style>
<g>
	<path class="st0" d="M485,318.8c24-27.2,37.9-59.3,37.9-93.8c0-97.5-111-176.5-247.9-176.5S27,127.5,27,225
		c0,34.5,13.9,66.6,37.9,93.8H485z"/>
	<g>
		<g>
			<g>
				<rect x="242.4" y="293.1" class="st1" width="68.4" height="16.7"/>
				<path class="st2" d="M323.7,318.5h-94.2c-2.4,0-4.4-2-4.4-4.4l0,0c0-2.4,2-4.4,4.4-4.4h94.2c2.4,0,4.4,2,4.4,4.4l0,0
					C328.1,316.6,326.1,318.5,323.7,318.5z"/>
			</g>
			<g>
				<path class="st2" d="M430.5,100.5c0-5.5-4.4-9.9-9.9-9.9H132.6c-5.5,0-9.9,4.4-9.9,9.9v166.7h307.8V100.5z"/>
				<rect x="135.9" y="104.7" class="st3" width="281.4" height="149.6"/>
				<path class="st1" d="M132.6,294.8h288.1c5.5,0,9.9-4.4,9.9-9.9v-17.7H122.7v17.7C122.7,290.4,127.1,294.8,132.6,294.8z"/>
			</g>
		</g>
		<g class="st4">
			<polygon class="st5" points="214.1,104.7 149.8,254.3 172.6,254.3 237.5,104.7 			"/>
			<polygon class="st5" points="377.9,104.7 313.7,254.3 336.4,254.3 401.4,104.7 			"/>
			<polygon class="st5" points="266.5,104.7 202.2,254.3 269.5,254.3 334.5,104.7 			"/>
		</g>
	</g>
	<g>
		<g>
			<g>
				<polygon class="st6" points="448.9,228.1 454.6,311.5 463.5,311.5 465.4,228.1 				"/>
				<path class="st7" d="M447.2,318.3h16.3v-7.6h-8.8C450.5,310.8,447.2,314.2,447.2,318.3L447.2,318.3z"/>
			</g>
			<g>
				<path class="st7" d="M466.5,318.3h17l-0.7-7.6h-8.8C469.9,310.8,466.5,314.2,466.5,318.3L466.5,318.3z"/>
				<polygon class="st8" points="477.1,228.2 482.8,310.8 474.1,311.1 459.4,228.2 				"/>
			</g>
		</g>
		<g>
			<g>
				<path class="st9" d="M461.8,185.2l23.2,20.8c1.9,1.7,4.8,1.8,6.8,0.2l0,0c2.3-1.9,2.6-5.2,0.7-7.5c0,0-11.2-15.1-17.5-20.1
					L461.8,185.2z"/>
				<g>
					<circle class="st10" cx="492.1" cy="235.8" r="5.6"/>
					<path class="st9" d="M484.9,203.7l3.1,27.8h8l-1.8-28.7c-0.2-2.7-2.7-4.7-5.3-4.2l0,0C486.3,198.9,484.6,201.2,484.9,203.7z"/>
				</g>
			</g>
			<g>
				<path class="st9" d="M459.4,174.7c0,0-11.4,0.4-12,11.8c-0.6,11.5,1.3,41.7,1.3,41.7h28.4l0.7-37c1.8-9.9-3.2-16.2-13.4-16.6
					C462.9,174.5,461.2,174.5,459.4,174.7z"/>
				<polygon class="st11" points="477.7,199.4 472.8,195 477.5,208.4 				"/>
			</g>
			<g>
				<g>
					<circle class="st10" cx="415.2" cy="164.9" r="5.6"/>
					<path class="st9" d="M432.9,195.2l-12-27.3l-7.7,2.4L424,198c0.7,2.6,3.6,4,6.1,3.1l0,0C432.4,200.2,433.7,197.6,432.9,195.2z"
						/>
				</g>
				<g>
					<path class="st9" d="M455,175.7c-15,6.2-28.6,15.8-28.6,15.8c-2.3,1.2-3.3,3.9-2.4,6.4l0,0c1,2.8,4.1,4.2,6.8,3.1l22.9-11.1
						L455,175.7z"/>
					<polygon class="st11" points="447.3,193 447.4,186.5 442.2,195.5 					"/>
				</g>
			</g>
		</g>
		<g>
			<g>
				<path class="st10" d="M456.1,168.2l0.4,7.7c0.1,1.7,1.1,3.1,2.7,3.8l0,0c2.9,1.2,6.1-1.2,5.8-4.3l-0.5-7.6L456.1,168.2z"/>
				<path class="st12" d="M456.4,173.7c0,0,7.1,1,8.1-6c1-7-6.8-4.1-6.8-4.1l-1.6,5.7L456.4,173.7z"/>
				<g>
					<defs>
						
							<ellipse id="XMLID_19_" transform="matrix(0.6801 -0.7331 0.7331 0.6801 30.9938 388.1849)" cx="460.3" cy="158.6" rx="12.5" ry="12.5"/>
					</defs>
					<use xlink:href="#XMLID_19_"  style="overflow:visible;fill:#8C6239;"/>
					<clipPath id="XMLID_2_">
						<use xlink:href="#XMLID_19_"  style="overflow:visible;"/>
					</clipPath>
					<path class="st13" d="M464,162.3c0,0-4.9,8.9,2,11.4c6.9,2.5,8.9-16.8,8.9-16.8l-7.5-14.7l-18.3-1.3l-1,6.3
						c0,0,1.7,6.2,17.1,12L464,162.3z"/>
					<polygon class="st13" points="460.2,155.3 462.4,162.6 467.9,159.4 					"/>
				</g>
				
					<ellipse transform="matrix(0.6801 -0.7331 0.7331 0.6801 29.9573 392.8907)" class="st10" cx="465.2" cy="162.1" rx="3.3" ry="3.3"/>
			</g>
			<g>
				<path class="st14" d="M447.5,154.6c0,0-0.6-8.9,6.9-13.6c6.2-3.8,14.6-1.7,18,4.7c1.6,3,2.5,6,1.5,11.8L447.5,154.6z"/>
				<path class="st15" d="M473.5,158.8c0,0-0.1,0-0.1,0l-30-3.2c-0.7-0.1-1.2-0.7-1.1-1.4c0.1-0.7,0.7-1.2,1.4-1.1l30,3.2
					c0.7,0.1,1.2,0.7,1.1,1.4C474.7,158.3,474.2,158.8,473.5,158.8z"/>
			</g>
		</g>
	</g>
	<g>
		<g>
			<path class="st0" d="M293.7,1.8l1.9,5c1.2,3.1,3.6,5.5,6.7,6.7l5,1.9l-5,1.9c-3.1,1.2-5.5,3.6-6.7,6.7l-1.9,5l-1.9-5
				c-1.2-3.1-3.6-5.5-6.7-6.7l-5-1.9l5-1.9c3.1-1.2,5.5-3.6,6.7-6.7L293.7,1.8z"/>
			<path class="st0" d="M405.1,32.3l1.3,3.3c0.8,2.1,2.4,3.7,4.5,4.5l3.3,1.3l-3.3,1.3c-2.1,0.8-3.7,2.4-4.5,4.5l-1.3,3.3l-1.3-3.3
				c-0.8-2.1-2.4-3.7-4.5-4.5l-3.3-1.3l3.3-1.3c2.1-0.8,3.7-2.4,4.5-4.5L405.1,32.3z"/>
			<path class="st0" d="M22.7,73.4l1,2.7c0.6,1.7,2,3,3.6,3.6l2.7,1l-2.7,1c-1.7,0.6-3,2-3.6,3.6l-1,2.7l-1-2.7
				c-0.6-1.7-2-3-3.6-3.6l-2.7-1l2.7-1c1.7-0.6,3-2,3.6-3.6L22.7,73.4z"/>
			<path class="st0" d="M517.9,87.2l1,2.7c0.6,1.7,2,3,3.6,3.6l2.7,1l-2.7,1c-1.7,0.6-3,2-3.6,3.6l-1,2.7l-1-2.7
				c-0.6-1.7-2-3-3.6-3.6l-2.7-1l2.7-1c1.7-0.6,3-2,3.6-3.6L517.9,87.2z"/>
		</g>
	</g>
	<g>
		<g>
			<g>
				<path class="st10" d="M140.7,31.7l5.4,5.5c1.2,1.2,2.9,1.6,4.5,1l0,0c3-1.1,3.7-4.9,1.4-7.1l-5.4-5.4L140.7,31.7z"/>
				<path class="st12" d="M144.5,35.6c0,0,3.4-6.9,2-9.9c-2.9-6.4-7.8,1.5-7.8,1.5l2.7,5.3L144.5,35.6z"/>
			</g>
			<g>
				<g>
					<defs>
						
							<ellipse id="XMLID_18_" transform="matrix(1.750797e-02 -0.9998 0.9998 1.750797e-02 113.1867 158.6681)" cx="137.3" cy="21.7" rx="12.5" ry="12.5"/>
					</defs>
					<use xlink:href="#XMLID_18_"  style="overflow:visible;fill:#8C6239;"/>
					<clipPath id="XMLID_3_">
						<use xlink:href="#XMLID_18_"  style="overflow:visible;"/>
					</clipPath>
					<path class="st16" d="M142.6,22.1c0,0,2.3,9.9,9.1,7.1c6.8-2.8-4.6-18.5-4.6-18.5l-15.4-5.9L117.2,16l1.6,9.8
						c0,0,5.2-3.7,20.5-9.6L142.6,22.1z"/>
					<polygon class="st16" points="135.1,19.4 141.6,23.3 143.5,17.3 					"/>
				</g>
			</g>
			<path class="st7" d="M143.3,24.5c0,0,10.8,29.4,24.2,16c11.9-11.9-6.1-19.1-11-20.4c-3.7-1-5.2-2.2-9.9-6.6l-9.3,1.3L143.3,24.5z
				"/>
			
				<ellipse transform="matrix(1.746623e-02 -0.9998 0.9998 1.746623e-02 119.722 164.0569)" class="st10" cx="143.3" cy="21.1" rx="3.3" ry="3.3"/>
			<g>
				<path class="st14" d="M123.6,23.4c0,0-4.9-7.5-0.7-15.2c3.5-6.4,11.8-8.7,18-4.8c2.9,1.8,5.1,4,7.1,9.6L123.6,23.4z"/>
				<path class="st15" d="M148.3,14.4c0,0-0.1,0-0.1,0.1l-27.7,11.9c-0.7,0.3-1.4,0-1.7-0.7c-0.3-0.7,0-1.4,0.7-1.7L147.2,12
					c0.7-0.3,1.4,0,1.7,0.7C149.1,13.3,148.9,14,148.3,14.4z"/>
			</g>
		</g>
		<g>
			<g>
				<g>
					<path class="st6" d="M123.1,93.2l-27.6,28.3l-7.1-3.1l23.9-33.9c2.3-3.9,7.9-4.1,10.6-0.5l0,0C124.5,86.2,124.6,91,123.1,93.2z
						"/>
				</g>
				<path class="st7" d="M77.8,118.3l13.9,9.8l3.8-6.6l-7.2-5C84.9,114,80.2,114.8,77.8,118.3L77.8,118.3z"/>
			</g>
			<g>
				<path class="st8" d="M142.2,76.4l-27.9,5l5.8,10.9h37.4c0,0,11.3-0.3,6.1-12.6L142.2,76.4z"/>
				<g>
					<path class="st8" d="M124.6,84.9l13.3,44l-7.5,4.3l-21-42.5c-2.1-4,0.5-8.9,5-9.3l0,0C117,81.1,123.4,82.5,124.6,84.9z"/>
				</g>
				<path class="st7" d="M126.9,143.2l13.9-7.3l-3-7l-7.8,4.1C126.4,134.9,125,139.5,126.9,143.2L126.9,143.2z"/>
			</g>
		</g>
		<g>
			<g>
				<g>
					<path class="st9" d="M140.6,43.3c0,0,1.1-4.9,2.6-6.4c1-1.1,4.7-4.5,6.7-5.3c0.6-0.2,1.3-0.2,1.8,0.2c2.4,1.5,9,6.3,12.3,16
						c3.1,9.4,3.8,36.1,3.8,36.1c-8.9,5.8-25.5-7.5-25.5-7.5C142.6,59.7,138.5,58.9,140.6,43.3z"/>
				</g>
			</g>
			<g>
				<path class="st11" d="M138.8,77l13.1,0.6c4.5,0.3,6.4-3.1,6.6-5.9l0.6-22.6L138.8,77z"/>
				<g>
					<path class="st10" d="M127,73.8l-7.8-2.8c-0.6-0.2-1.3-0.1-1.8,0.3l-3.4,2.8c-1,0.8-0.8,2.4,0.4,2.9l0,0
						c0.6,0.3,1.3,0.1,1.8-0.3l1.7-1.5c0,0,5.7,3.2,8.4,2.4L127,73.8z"/>
					<g>
						<g>
							<path class="st9" d="M146.7,39.3l-1.4,25.4l-20.6,5.4l0.9,7.7l25.2-2.6c1.8-0.1,3.5-1,4.7-2.3c0.7-0.7,1-1.7,1.1-2.7
								l3.1-26.3L146.7,39.3z"/>
						</g>
					</g>
				</g>
				<g>
					<path class="st7" d="M112,83.9l29.3-5.1c0.9-0.2,1.5-1,1.3-1.9l0,0c-0.2-0.9-1-1.5-1.9-1.3l-29.3,5.1c-0.9,0.2-1.5,1-1.3,1.9
						l0,0C110.3,83.4,111.1,84,112,83.9z"/>
					<path class="st7" d="M112.2,82.3c-0.2,0-0.3-0.1-0.5-0.2l-17.6-20c-0.2-0.3-0.2-0.6,0.1-0.9c0.3-0.2,0.6-0.2,0.9,0.1l17.6,20
						c0.2,0.3,0.2,0.6-0.1,0.9C112.5,82.3,112.4,82.3,112.2,82.3z"/>
				</g>
			</g>
		</g>
		<path class="st7" d="M146.5,31.3c0,0,8.4,20.1,19.8,10.1c11.4-10-12.5-15.8-12.5-15.8L146.5,31.3z"/>
	</g>
	<g>
		<g>
			<g>
				<g>
					<defs>
						<path id="XMLID_16_" d="M374.1,315l14.9-38.5c0.7-1.8,3.3-1.8,4,0l14.9,38.5H374.1z"/>
					</defs>
					<use xlink:href="#XMLID_16_"  style="overflow:visible;fill:#F2A62F;"/>
					<clipPath id="XMLID_4_">
						<use xlink:href="#XMLID_16_"  style="overflow:visible;"/>
					</clipPath>
					<rect x="377.5" y="284.8" class="st17" width="26.5" height="7.4"/>
					<rect x="376.1" y="298.8" class="st17" width="29.9" height="7.4"/>
				</g>
				<path class="st18" d="M410.3,318.3h-38.3c-1.5,0-2.7-1.2-2.7-2.7l0,0c0-1.5,1.2-2.7,2.7-2.7h38.3c1.5,0,2.7,1.2,2.7,2.7l0,0
					C412.9,317.1,411.7,318.3,410.3,318.3z"/>
			</g>
			<g>
				<rect x="80.9" y="270.7" class="st2" width="11.7" height="32.9"/>
				<rect x="142.4" y="270.7" class="st2" width="11.7" height="32.9"/>
				<path class="st2" d="M160.5,318.4H73.8c-2.8,0-5.1-2.3-5.1-5.1v-6.4c0-2.8,2.3-5.1,5.1-5.1h86.6c2.8,0,5.1,2.3,5.1,5.1v6.4
					C165.5,316.1,163.3,318.4,160.5,318.4z"/>
				<g>
					<defs>
						<path id="XMLID_15_" d="M158.9,273.3H76.5c-4.3,0-7.8-3.5-7.8-7.8v-14.2c0-4.3,3.5-7.8,7.8-7.8h82.4c4.3,0,7.8,3.5,7.8,7.8
							v14.2C166.6,269.8,163.1,273.3,158.9,273.3z"/>
					</defs>
					<use xlink:href="#XMLID_15_"  style="overflow:visible;fill:#F2A62F;"/>
					<clipPath id="XMLID_5_">
						<use xlink:href="#XMLID_15_"  style="overflow:visible;"/>
					</clipPath>
					<polygon class="st19" points="67.5,283.7 49.9,283.7 91,238.1 108.6,238.1 					"/>
					<polygon class="st19" points="139.2,283.7 121.5,283.7 162.6,238.1 180.3,238.1 					"/>
					<polygon class="st19" points="102.6,283.7 85,283.7 126.1,238.1 143.7,238.1 					"/>
				</g>
			</g>
		</g>
		<path class="st2" d="M546,321.6H2.6c-1.7,0-3-1.4-3-3s1.4-3,3-3H546c1.7,0,3,1.4,3,3S547.6,321.6,546,321.6z"/>
	</g>
</g>
</svg>
