<?xml version="1.0" encoding="utf-8"?>
<!-- Generator: Adobe Illustrator 21.0.0, SVG Export Plug-In . SVG Version: 6.00 Build 0)  -->
<svg version="1.1" id="linkedin" xmlns="http://www.w3.org/2000/svg" xmlns:xlink="http://www.w3.org/1999/xlink" x="0px" y="0px"
	 viewBox="0 0 21 21" style="enable-background:new 0 0 21 21;" xml:space="preserve">
<style type="text/css">
	.st0{fill:#FFFFFF;}
	.st1{fill:#ec284b;}
</style>
<path class="st0" d="M17.9,0.1H3.1c-1.7,0-3,1.4-3,3v14.7c0,1.7,1.4,3,3,3h14.7c1.7,0,3-1.4,3-3V3.1C20.9,1.5,19.5,0.1,17.9,0.1z"/>
<rect x="5" y="8.1" class="st1" width="2.4" height="8.5"/>
<rect x="5" y="4.4" class="st1" width="2.4" height="2.4"/>
<path class="st1" d="M16,16.6h-2.4v-4.9c0-0.7-0.5-1.2-1.2-1.2s-1.2,0.5-1.2,1.2v4.9H8.7V8.1h2.4v0.5c0.6-0.2,1.1-0.5,1.8-0.5
	c1.7,0,3,1.5,3,3.2V16.6z"/>
</svg>
