<?xml version="1.0" encoding="utf-8"?>
<!-- Generator: Adobe Illustrator 21.0.0, SVG Export Plug-In . SVG Version: 6.00 Build 0)  -->
<svg version="1.1" id="right-arrow" xmlns="http://www.w3.org/2000/svg" xmlns:xlink="http://www.w3.org/1999/xlink" x="0px"
	 y="0px" viewBox="0 0 50 50" style="enable-background:new 0 0 50 50;" xml:space="preserve">
<style type="text/css">
	.st0{fill:#999999;}
</style>
<path class="st0" d="M3.8,37.3c2.2,3.8,5.2,6.7,8.9,8.9c3.8,2.2,7.9,3.3,12.3,3.3c4.4,0,8.5-1.1,12.3-3.3c3.8-2.2,6.7-5.2,8.9-8.9
	c2.2-3.8,3.3-7.9,3.3-12.3c0-4.4-1.1-8.5-3.3-12.3C44,8.9,41.1,6,37.3,3.8C33.5,1.6,29.4,0.5,25,0.5c-4.4,0-8.5,1.1-12.3,3.3
	C8.9,6,6,8.9,3.8,12.7C1.6,16.5,0.5,20.6,0.5,25C0.5,29.4,1.6,33.5,3.8,37.3z M18.3,16.8c-0.3-0.3-0.5-0.7-0.5-1.2
	c0-0.5,0.2-0.9,0.5-1.2l2.7-2.7c0.3-0.3,0.7-0.5,1.2-0.5c0.5,0,0.9,0.2,1.2,0.5l12.1,12.1c0.3,0.3,0.5,0.7,0.5,1.2s-0.2,0.9-0.5,1.2
	L23.4,38.4c-0.3,0.3-0.7,0.5-1.2,0.5c-0.5,0-0.9-0.2-1.2-0.5l-2.7-2.7c-0.3-0.3-0.5-0.7-0.5-1.2c0-0.5,0.2-0.9,0.5-1.2l8.2-8.2
	L18.3,16.8z"/>
</svg>
