<?xml version="1.0" encoding="utf-8"?>
<!-- Generator: Adobe Illustrator 21.0.0, SVG Export Plug-In . SVG Version: 6.00 Build 0)  -->
<svg version="1.1" id="phone" xmlns="http://www.w3.org/2000/svg" xmlns:xlink="http://www.w3.org/1999/xlink" x="0px" y="0px"
	 viewBox="0 0 21 21" style="enable-background:new 0 0 21 21;" xml:space="preserve">
<style type="text/css">
	.st0{fill:#FFFFFF;}
	.st1{fill:#4A2E86;}
</style>
<path class="st0" d="M19,21H2c-1.1,0-2-0.9-2-2V2c0-1.1,0.9-2,2-2h17c1.1,0,2,0.9,2,2v17C21,20.1,20.1,21,19,21z"/>
<g>
	<g>
		<path class="st1" d="M15.1,15.2l-1.5-1.9C13.5,13.1,13.2,13,13,13h-0.6c-0.5,0.3-1.6,0.8-3.1-1.8C7.8,8.7,8.8,8,9.3,7.7l0.3-0.5
			C9.8,7,9.8,6.8,9.7,6.6L8.9,4.3C8.8,4.2,8.6,4,8.4,4.1L7.3,4.3c-2,1.2-2.1,4.7,0,8.2c2,3.5,5.1,5.3,7.1,4.1l0.7-0.8
			C15.3,15.6,15.3,15.4,15.1,15.2z"/>
	</g>
</g>
</svg>
