<?xml version="1.0" encoding="utf-8"?>
<!-- Generator: Adobe Illustrator 21.0.0, SVG Export Plug-In . SVG Version: 6.00 Build 0)  -->
<svg version="1.1" id="twitter" xmlns="http://www.w3.org/2000/svg" xmlns:xlink="http://www.w3.org/1999/xlink" x="0px" y="0px"
	 viewBox="0 0 21 21" style="enable-background:new 0 0 21 21;" xml:space="preserve">
<style type="text/css">
	.st0{fill:#FFFFFF;}
	.st1{fill:#4A2E86;}
</style>
<path class="st0" d="M19,21H2c-1.1,0-2-0.9-2-2V2c0-1.1,0.9-2,2-2h17c1.1,0,2,0.9,2,2v17C21,20.1,20.1,21,19,21z"/>
<g>
	<path class="st1" d="M17.6,6.1c-0.5,0.2-1.1,0.4-1.7,0.5C16.5,6.2,17,5.6,17.2,5c-0.6,0.3-1.2,0.6-1.8,0.7
		c-0.5-0.6-1.3-0.9-2.1-0.9c-1.6,0-2.9,1.3-2.9,2.9c0,0.2,0,0.4,0.1,0.7C8,8.2,5.8,7,4.4,5.3C4.2,5.7,4,6.2,4,6.7
		c0,1,0.5,1.9,1.3,2.4C4.8,9.1,4.4,9,4,8.8c0,0,0,0,0,0c0,1.4,1,2.6,2.3,2.8c-0.2,0.1-0.5,0.1-0.8,0.1c-0.2,0-0.4,0-0.5-0.1
		c0.4,1.2,1.4,2,2.7,2c-1,0.8-2.2,1.2-3.6,1.2c-0.2,0-0.5,0-0.7,0c1.3,0.8,2.8,1.3,4.4,1.3c5.3,0,8.3-4.4,8.3-8.3c0-0.1,0-0.3,0-0.4
		C16.7,7.2,17.2,6.7,17.6,6.1L17.6,6.1z"/>
</g>
</svg>
